<svg width="171" height="121" viewBox="0 0 171 121" fill="none" xmlns="http://www.w3.org/2000/svg">
<rect width="171" height="121" rx="7" fill="#202A45"/>
<path d="M9.23829 24V9.74146H12.2529V21.5145H18.3657V24H9.23829ZM32.5176 16.8707C32.5176 18.4256 32.2229 19.7484 31.6334 20.8392C31.0486 21.9299 30.2502 22.7631 29.2384 23.3386C28.2312 23.9095 27.0987 24.1949 25.8409 24.1949C24.5737 24.1949 23.4366 23.9072 22.4294 23.3316C21.4222 22.7561 20.6262 21.923 20.0414 20.8322C19.4565 19.7415 19.1641 18.421 19.1641 16.8707C19.1641 15.3158 19.4565 13.993 20.0414 12.9023C20.6262 11.8115 21.4222 10.9807 22.4294 10.4098C23.4366 9.83429 24.5737 9.54652 25.8409 9.54652C27.0987 9.54652 28.2312 9.83429 29.2384 10.4098C30.2502 10.9807 31.0486 11.8115 31.6334 12.9023C32.2229 13.993 32.5176 15.3158 32.5176 16.8707ZM29.4612 16.8707C29.4612 15.8635 29.3103 15.0141 29.0086 14.3226C28.7116 13.631 28.2915 13.1065 27.7485 12.7491C27.2054 12.3917 26.5696 12.213 25.8409 12.213C25.1122 12.213 24.4763 12.3917 23.9332 12.7491C23.3902 13.1065 22.9678 13.631 22.6661 14.3226C22.3691 15.0141 22.2205 15.8635 22.2205 16.8707C22.2205 17.8779 22.3691 18.7273 22.6661 19.4189C22.9678 20.1105 23.3902 20.6349 23.9332 20.9923C24.4763 21.3497 25.1122 21.5284 25.8409 21.5284C26.5696 21.5284 27.2054 21.3497 27.7485 20.9923C28.2915 20.6349 28.7116 20.1105 29.0086 19.4189C29.3103 18.7273 29.4612 17.8779 29.4612 16.8707ZM43.1658 9.74146H46.1804V19.0012C46.1804 20.0408 45.9321 20.9506 45.4354 21.7303C44.9434 22.5101 44.2542 23.1181 43.3677 23.5544C42.4811 23.9861 41.4484 24.2019 40.2695 24.2019C39.0859 24.2019 38.0509 23.9861 37.1644 23.5544C36.2778 23.1181 35.5886 22.5101 35.0966 21.7303C34.6046 20.9506 34.3586 20.0408 34.3586 19.0012V9.74146H37.3732V18.7436C37.3732 19.2866 37.4916 19.7693 37.7283 20.1917C37.9696 20.6141 38.3085 20.9459 38.7448 21.1873C39.1811 21.4286 39.6893 21.5493 40.2695 21.5493C40.8543 21.5493 41.3625 21.4286 41.7942 21.1873C42.2305 20.9459 42.567 20.6141 42.8037 20.1917C43.0451 19.7693 43.1658 19.2866 43.1658 18.7436V9.74146ZM51.2832 9.74146V24H48.2685V9.74146H51.2832ZM61.1063 13.8422C61.0506 13.2806 60.8116 12.8443 60.3892 12.5333C59.9668 12.2223 59.3936 12.0668 58.6695 12.0668C58.1776 12.0668 57.7621 12.1364 57.4233 12.2757C57.0845 12.4103 56.8246 12.5983 56.6436 12.8396C56.4672 13.081 56.379 13.3548 56.379 13.6612C56.3697 13.9164 56.4231 14.1392 56.5391 14.3295C56.6598 14.5198 56.8246 14.6846 57.0334 14.8238C57.2423 14.9585 57.4837 15.0768 57.7575 15.1789C58.0313 15.2764 58.3238 15.3599 58.6347 15.4296L59.9158 15.7359C60.5377 15.8751 61.1086 16.0608 61.6285 16.2929C62.1483 16.5249 62.5985 16.8104 62.9791 17.1492C63.3597 17.488 63.6545 17.8872 63.8633 18.3467C64.0768 18.8062 64.1859 19.333 64.1906 19.9271C64.1859 20.7997 63.9631 21.5563 63.5222 22.1968C63.0859 22.8327 62.4547 23.327 61.6285 23.6797C60.8069 24.0278 59.816 24.2019 58.6556 24.2019C57.5045 24.2019 56.502 24.0255 55.648 23.6728C54.7986 23.32 54.1348 22.7979 53.6568 22.1063C53.1833 21.4101 52.935 20.5491 52.9118 19.5233H55.829C55.8615 20.0014 55.9984 20.4006 56.2397 20.7208C56.4857 21.0364 56.813 21.2755 57.2214 21.4379C57.6345 21.5957 58.101 21.6746 58.6208 21.6746C59.1314 21.6746 59.5746 21.6004 59.9506 21.4518C60.3312 21.3033 60.6259 21.0968 60.8348 20.8322C61.0436 20.5676 61.1481 20.2636 61.1481 19.9202C61.1481 19.5999 61.0529 19.3307 60.8626 19.1126C60.677 18.8944 60.4031 18.7087 60.0411 18.5556C59.6837 18.4024 59.2451 18.2632 58.7252 18.1378L57.1727 17.748C55.9705 17.4556 55.0214 16.9984 54.3251 16.3764C53.6289 15.7545 53.2831 14.9167 53.2878 13.8631C53.2831 12.9998 53.5129 12.2455 53.977 11.6004C54.4458 10.9552 55.0887 10.4516 55.9056 10.0896C56.7225 9.72753 57.6507 9.54652 58.6904 9.54652C59.7487 9.54652 60.6723 9.72753 61.4614 10.0896C62.2551 10.4516 62.8724 10.9552 63.3133 11.6004C63.7543 12.2455 63.9817 12.9928 63.9956 13.8422H61.1063ZM73.1812 24L69.1014 9.74146H72.3945L74.7547 19.6486H74.873L77.4769 9.74146H80.2966L82.8935 19.6695H83.0188L85.379 9.74146H88.6721L84.5922 24H81.6542L78.939 14.6776H78.8276L76.1193 24H73.1812ZM89.058 9.74146H92.4346L95.686 15.8821H95.8252L99.0766 9.74146H102.453L97.2525 18.9594V24H94.2587V18.9594L89.058 9.74146ZM103.708 24V9.74146H113.315V12.227H106.722V15.6245H112.821V18.11H106.722V21.5145H113.343V24H103.708ZM115.32 24V9.74146H124.928V12.227H118.335V15.6245H124.434V18.11H118.335V21.5145H124.956V24H115.32ZM126.933 24V9.74146H136.54V12.227H129.947V15.6245H136.046V18.11H129.947V21.5145H136.568V24H126.933ZM138.002 12.227V9.74146H149.712V12.227H145.347V24H142.367V12.227H138.002ZM151.249 24V9.74146H154.263V15.6245H160.383V9.74146H163.391V24H160.383V18.11H154.263V24H151.249Z" fill="white"/>
<path d="M8.45249 92V87.8725H9.07525V91.4639H10.9455V92H8.45249ZM12.798 92.0625C12.5078 92.0625 12.2546 91.996 12.0382 91.863C11.8219 91.7299 11.654 91.5438 11.5344 91.3047C11.4148 91.0655 11.355 90.7861 11.355 90.4663C11.355 90.1452 11.4148 89.8644 11.5344 89.6238C11.654 89.3833 11.8219 89.1966 12.0382 89.0636C12.2546 88.9305 12.5078 88.864 12.798 88.864C13.0883 88.864 13.3415 88.9305 13.5579 89.0636C13.7742 89.1966 13.9421 89.3833 14.0617 89.6238C14.1813 89.8644 14.2411 90.1452 14.2411 90.4663C14.2411 90.7861 14.1813 91.0655 14.0617 91.3047C13.9421 91.5438 13.7742 91.7299 13.5579 91.863C13.3415 91.996 13.0883 92.0625 12.798 92.0625ZM12.8001 91.5566C12.9882 91.5566 13.144 91.5069 13.2676 91.4075C13.3912 91.308 13.4826 91.1757 13.5417 91.0104C13.6022 90.8452 13.6324 90.6631 13.6324 90.4643C13.6324 90.2668 13.6022 90.0854 13.5417 89.9201C13.4826 89.7535 13.3912 89.6198 13.2676 89.519C13.144 89.4183 12.9882 89.3679 12.8001 89.3679C12.6106 89.3679 12.4534 89.4183 12.3285 89.519C12.2048 89.6198 12.1128 89.7535 12.0524 89.9201C11.9932 90.0854 11.9637 90.2668 11.9637 90.4643C11.9637 90.6631 11.9932 90.8452 12.0524 91.0104C12.1128 91.1757 12.2048 91.308 12.3285 91.4075C12.4534 91.5069 12.6106 91.5566 12.8001 91.5566ZM14.8002 92V88.9043H15.3827V89.3961H15.4149C15.4713 89.2295 15.5708 89.0985 15.7132 89.0031C15.8569 88.9064 16.0195 88.858 16.2009 88.858C16.2385 88.858 16.2829 88.8593 16.3339 88.862C16.3863 88.8647 16.4273 88.8681 16.4569 88.8721V89.4485C16.4327 89.4418 16.3897 89.4344 16.3279 89.4263C16.2661 89.4169 16.2043 89.4122 16.1425 89.4122C16 89.4122 15.8731 89.4425 15.7615 89.5029C15.6514 89.562 15.564 89.6447 15.4995 89.7508C15.4351 89.8556 15.4028 89.9752 15.4028 90.1096V92H14.8002ZM18.0882 92.0625C17.7832 92.0625 17.5205 91.9973 17.3002 91.867C17.0812 91.7353 16.9119 91.5506 16.7923 91.3127C16.674 91.0736 16.6149 90.7934 16.6149 90.4723C16.6149 90.1552 16.674 89.8758 16.7923 89.6339C16.9119 89.3921 17.0785 89.2033 17.2921 89.0676C17.5071 88.9319 17.7583 88.864 18.0459 88.864C18.2205 88.864 18.3898 88.8929 18.5537 88.9507C18.7177 89.0085 18.8648 89.0992 18.9951 89.2228C19.1254 89.3464 19.2282 89.507 19.3035 89.7045C19.3787 89.9006 19.4163 90.1391 19.4163 90.4199V90.6336H16.9555V90.1821H18.8258C18.8258 90.0236 18.7936 89.8832 18.7291 89.7609C18.6646 89.6373 18.5739 89.5399 18.457 89.4687C18.3415 89.3975 18.2057 89.3618 18.0499 89.3618C17.8806 89.3618 17.7328 89.4035 17.6065 89.4868C17.4815 89.5688 17.3848 89.6762 17.3163 89.8093C17.2491 89.9409 17.2155 90.084 17.2155 90.2385V90.5912C17.2155 90.7982 17.2518 90.9742 17.3243 91.1193C17.3982 91.2644 17.501 91.3752 17.6327 91.4518C17.7644 91.5271 17.9182 91.5647 18.0942 91.5647C18.2084 91.5647 18.3126 91.5486 18.4066 91.5163C18.5007 91.4827 18.582 91.433 18.6505 91.3672C18.719 91.3013 18.7714 91.22 18.8077 91.1233L19.378 91.2261C19.3324 91.394 19.2504 91.5412 19.1322 91.6675C19.0153 91.7924 18.8681 91.8898 18.6908 91.9597C18.5148 92.0282 18.3139 92.0625 18.0882 92.0625ZM19.9714 92V88.9043H20.5499V89.4082H20.5881C20.6526 89.2376 20.7581 89.1045 20.9046 89.0092C21.051 88.9124 21.2264 88.864 21.4306 88.864C21.6375 88.864 21.8108 88.9124 21.9506 89.0092C22.0916 89.1059 22.1958 89.2389 22.2629 89.4082H22.2952C22.3691 89.2429 22.4866 89.1113 22.6479 89.0132C22.8091 88.9138 23.0012 88.864 23.2243 88.864C23.5051 88.864 23.7342 88.952 23.9115 89.1281C24.0902 89.3041 24.1796 89.5694 24.1796 89.9241V92H23.577V89.9806C23.577 89.771 23.5199 89.6191 23.4057 89.5251C23.2915 89.431 23.1551 89.384 22.9965 89.384C22.8004 89.384 22.6479 89.4445 22.539 89.5654C22.4302 89.685 22.3758 89.8388 22.3758 90.0269V92H21.7752V89.9423C21.7752 89.7743 21.7228 89.6393 21.618 89.5372C21.5132 89.4351 21.3768 89.384 21.2089 89.384C21.0947 89.384 20.9892 89.4142 20.8925 89.4747C20.7971 89.5338 20.7198 89.6165 20.6607 89.7226C20.6029 89.8287 20.574 89.9517 20.574 90.0914V92H19.9714ZM26.2622 92V88.9043H26.8648V92H26.2622ZM26.5665 88.4267C26.4617 88.4267 26.3717 88.3918 26.2965 88.3219C26.2226 88.2507 26.1856 88.166 26.1856 88.068C26.1856 87.9685 26.2226 87.8839 26.2965 87.814C26.3717 87.7428 26.4617 87.7072 26.5665 87.7072C26.6713 87.7072 26.7607 87.7428 26.8346 87.814C26.9098 87.8839 26.9474 87.9685 26.9474 88.068C26.9474 88.166 26.9098 88.2507 26.8346 88.3219C26.7607 88.3918 26.6713 88.4267 26.5665 88.4267ZM27.562 93.1609V88.9043H28.1505V89.4062H28.2009C28.2358 89.3417 28.2862 89.2671 28.352 89.1825C28.4179 89.0978 28.5092 89.0239 28.6261 88.9608C28.743 88.8963 28.8975 88.864 29.0897 88.864C29.3396 88.864 29.5626 88.9272 29.7588 89.0535C29.955 89.1798 30.1088 89.3618 30.2203 89.5997C30.3332 89.8375 30.3896 90.1237 30.3896 90.4582C30.3896 90.7928 30.3338 91.0796 30.2223 91.3188C30.1108 91.5566 29.9576 91.74 29.7628 91.869C29.568 91.9966 29.3456 92.0605 29.0957 92.0605C28.9076 92.0605 28.7538 92.0289 28.6342 91.9657C28.516 91.9026 28.4232 91.8287 28.3561 91.744C28.2889 91.6594 28.2372 91.5842 28.2009 91.5183H28.1646V93.1609H27.562ZM28.1525 90.4522C28.1525 90.6698 28.1841 90.8606 28.2472 91.0245C28.3104 91.1885 28.4018 91.3168 28.5213 91.4095C28.6409 91.5009 28.7874 91.5465 28.9607 91.5465C29.1407 91.5465 29.2912 91.4988 29.4121 91.4034C29.5331 91.3067 29.6244 91.1757 29.6862 91.0104C29.7494 90.8452 29.781 90.6591 29.781 90.4522C29.781 90.2479 29.7501 90.0645 29.6882 89.902C29.6278 89.7394 29.5364 89.6111 29.4142 89.517C29.2932 89.423 29.1421 89.376 28.9607 89.376C28.786 89.376 28.6382 89.421 28.5173 89.511C28.3977 89.601 28.307 89.7266 28.2452 89.8879C28.1834 90.0491 28.1525 90.2372 28.1525 90.4522ZM33.271 89.6601L32.7248 89.7569C32.702 89.687 32.6657 89.6205 32.616 89.5573C32.5676 89.4942 32.5018 89.4425 32.4185 89.4022C32.3352 89.3618 32.231 89.3417 32.1061 89.3417C31.9354 89.3417 31.793 89.38 31.6788 89.4566C31.5646 89.5318 31.5075 89.6292 31.5075 89.7488C31.5075 89.8523 31.5458 89.9356 31.6224 89.9987C31.699 90.0619 31.8226 90.1136 31.9932 90.1539L32.485 90.2668C32.7698 90.3326 32.9821 90.434 33.1218 90.5711C33.2616 90.7081 33.3314 90.8862 33.3314 91.1052C33.3314 91.2906 33.2777 91.4558 33.1702 91.601C33.0641 91.7447 32.9156 91.8576 32.7248 91.9395C32.5354 92.0215 32.3157 92.0625 32.0658 92.0625C31.7191 92.0625 31.4363 91.9886 31.2173 91.8408C30.9983 91.6916 30.8639 91.48 30.8142 91.2059L31.3967 91.1173C31.4329 91.2691 31.5075 91.384 31.6204 91.4619C31.7332 91.5385 31.8804 91.5768 32.0617 91.5768C32.2592 91.5768 32.4171 91.5358 32.5354 91.4538C32.6536 91.3705 32.7127 91.2691 32.7127 91.1495C32.7127 91.0528 32.6764 90.9715 32.6039 90.9056C32.5327 90.8398 32.4232 90.7901 32.2754 90.7565L31.7514 90.6416C31.4625 90.5758 31.2489 90.471 31.1105 90.3272C30.9734 90.1835 30.9049 90.0014 30.9049 89.781C30.9049 89.5983 30.956 89.4384 31.0581 89.3014C31.1602 89.1643 31.3013 89.0575 31.4813 88.9809C31.6613 88.903 31.8676 88.864 32.1 88.864C32.4346 88.864 32.6979 88.9366 32.8901 89.0817C33.0822 89.2255 33.2092 89.4183 33.271 89.6601ZM35.8415 90.7162V88.9043H36.4461V92H35.8536V91.4639H35.8213C35.7501 91.6292 35.6359 91.7669 35.4787 91.8771C35.3228 91.9859 35.1287 92.0403 34.8963 92.0403C34.6974 92.0403 34.5214 91.9966 34.3682 91.9093C34.2164 91.8206 34.0968 91.6896 34.0095 91.5163C33.9235 91.343 33.8805 91.1287 33.8805 90.8734V88.9043H34.4831V90.8008C34.4831 91.0118 34.5415 91.1797 34.6584 91.3047C34.7753 91.4296 34.9272 91.4921 35.1139 91.4921C35.2268 91.4921 35.339 91.4639 35.4505 91.4075C35.5634 91.351 35.6567 91.2657 35.7306 91.1515C35.8059 91.0373 35.8428 90.8922 35.8415 90.7162ZM37.1423 92V88.9043H37.7207V89.4082H37.759C37.8235 89.2376 37.929 89.1045 38.0754 89.0092C38.2219 88.9124 38.3972 88.864 38.6014 88.864C38.8083 88.864 38.9817 88.9124 39.1214 89.0092C39.2625 89.1059 39.3666 89.2389 39.4338 89.4082H39.466C39.5399 89.2429 39.6575 89.1113 39.8187 89.0132C39.98 88.9138 40.1721 88.864 40.3951 88.864C40.6759 88.864 40.905 88.952 41.0824 89.1281C41.2611 89.3041 41.3504 89.5694 41.3504 89.9241V92H40.7478V89.9806C40.7478 89.771 40.6907 89.6191 40.5765 89.5251C40.4623 89.431 40.3259 89.384 40.1674 89.384C39.9712 89.384 39.8187 89.4445 39.7099 89.5654C39.6011 89.685 39.5466 89.8388 39.5466 90.0269V92H38.9461V89.9423C38.9461 89.7743 38.8937 89.6393 38.7889 89.5372C38.6841 89.4351 38.5477 89.384 38.3797 89.384C38.2655 89.384 38.1601 89.4142 38.0633 89.4747C37.9679 89.5338 37.8907 89.6165 37.8315 89.7226C37.7738 89.8287 37.7449 89.9517 37.7449 90.0914V92H37.1423ZM44.5919 92.0605C44.342 92.0605 44.119 91.9966 43.9228 91.869C43.728 91.74 43.5748 91.5566 43.4633 91.3188C43.3531 91.0796 43.298 90.7928 43.298 90.4582C43.298 90.1237 43.3538 89.8375 43.4653 89.5997C43.5782 89.3618 43.7327 89.1798 43.9288 89.0535C44.125 88.9272 44.3474 88.864 44.5959 88.864C44.7881 88.864 44.9426 88.8963 45.0595 88.9608C45.1777 89.0239 45.2691 89.0978 45.3336 89.1825C45.3994 89.2671 45.4505 89.3417 45.4867 89.4062H45.523V87.8725H46.1256V92H45.5371V91.5183H45.4867C45.4505 91.5842 45.3981 91.6594 45.3295 91.744C45.2624 91.8287 45.1697 91.9026 45.0514 91.9657C44.9332 92.0289 44.78 92.0605 44.5919 92.0605ZM44.7249 91.5465C44.8983 91.5465 45.0447 91.5009 45.1643 91.4095C45.2852 91.3168 45.3766 91.1885 45.4384 91.0245C45.5015 90.8606 45.5331 90.6698 45.5331 90.4522C45.5331 90.2372 45.5022 90.0491 45.4404 89.8879C45.3786 89.7266 45.2879 89.601 45.1683 89.511C45.0487 89.421 44.9009 89.376 44.7249 89.376C44.5435 89.376 44.3924 89.423 44.2715 89.517C44.1505 89.6111 44.0592 89.7394 43.9974 89.902C43.9369 90.0645 43.9067 90.2479 43.9067 90.4522C43.9067 90.6591 43.9376 90.8452 43.9994 91.0104C44.0612 91.1757 44.1526 91.3067 44.2735 91.4034C44.3957 91.4988 44.5462 91.5465 44.7249 91.5465ZM48.1762 92.0625C47.8859 92.0625 47.6327 91.996 47.4163 91.863C47.2 91.7299 47.0321 91.5438 46.9125 91.3047C46.7929 91.0655 46.7331 90.7861 46.7331 90.4663C46.7331 90.1452 46.7929 89.8644 46.9125 89.6238C47.0321 89.3833 47.2 89.1966 47.4163 89.0636C47.6327 88.9305 47.8859 88.864 48.1762 88.864C48.4664 88.864 48.7196 88.9305 48.936 89.0636C49.1523 89.1966 49.3202 89.3833 49.4398 89.6238C49.5594 89.8644 49.6192 90.1452 49.6192 90.4663C49.6192 90.7861 49.5594 91.0655 49.4398 91.3047C49.3202 91.5438 49.1523 91.7299 48.936 91.863C48.7196 91.996 48.4664 92.0625 48.1762 92.0625ZM48.1782 91.5566C48.3663 91.5566 48.5221 91.5069 48.6457 91.4075C48.7694 91.308 48.8607 91.1757 48.9198 91.0104C48.9803 90.8452 49.0105 90.6631 49.0105 90.4643C49.0105 90.2668 48.9803 90.0854 48.9198 89.9201C48.8607 89.7535 48.7694 89.6198 48.6457 89.519C48.5221 89.4183 48.3663 89.3679 48.1782 89.3679C47.9887 89.3679 47.8315 89.4183 47.7066 89.519C47.583 89.6198 47.4909 89.7535 47.4305 89.9201C47.3713 90.0854 47.3418 90.2668 47.3418 90.4643C47.3418 90.6631 47.3713 90.8452 47.4305 91.0104C47.4909 91.1757 47.583 91.308 47.7066 91.4075C47.8315 91.5069 47.9887 91.5566 48.1782 91.5566ZM50.7809 87.8725V92H50.1783V87.8725H50.7809ZM52.7821 92.0625C52.4918 92.0625 52.2386 91.996 52.0223 91.863C51.8059 91.7299 51.638 91.5438 51.5184 91.3047C51.3988 91.0655 51.339 90.7861 51.339 90.4663C51.339 90.1452 51.3988 89.8644 51.5184 89.6238C51.638 89.3833 51.8059 89.1966 52.0223 89.0636C52.2386 88.9305 52.4918 88.864 52.7821 88.864C53.0723 88.864 53.3255 88.9305 53.5419 89.0636C53.7582 89.1966 53.9261 89.3833 54.0457 89.6238C54.1653 89.8644 54.2251 90.1452 54.2251 90.4663C54.2251 90.7861 54.1653 91.0655 54.0457 91.3047C53.9261 91.5438 53.7582 91.7299 53.5419 91.863C53.3255 91.996 53.0723 92.0625 52.7821 92.0625ZM52.7841 91.5566C52.9722 91.5566 53.128 91.5069 53.2517 91.4075C53.3753 91.308 53.4666 91.1757 53.5257 91.0104C53.5862 90.8452 53.6164 90.6631 53.6164 90.4643C53.6164 90.2668 53.5862 90.0854 53.5257 89.9201C53.4666 89.7535 53.3753 89.6198 53.2517 89.519C53.128 89.4183 52.9722 89.3679 52.7841 89.3679C52.5946 89.3679 52.4374 89.4183 52.3125 89.519C52.1889 89.6198 52.0968 89.7535 52.0364 89.9201C51.9772 90.0854 51.9477 90.2668 51.9477 90.4643C51.9477 90.6631 51.9772 90.8452 52.0364 91.0104C52.0968 91.1757 52.1889 91.308 52.3125 91.4075C52.4374 91.5069 52.5946 91.5566 52.7841 91.5566ZM54.7842 92V88.9043H55.3667V89.3961H55.3989C55.4553 89.2295 55.5548 89.0985 55.6972 89.0031C55.841 88.9064 56.0035 88.858 56.1849 88.858C56.2225 88.858 56.2669 88.8593 56.3179 88.862C56.3703 88.8647 56.4113 88.8681 56.4409 88.8721V89.4485C56.4167 89.4418 56.3737 89.4344 56.3119 89.4263C56.2501 89.4169 56.1883 89.4122 56.1265 89.4122C55.9841 89.4122 55.8571 89.4425 55.7456 89.5029C55.6354 89.562 55.5481 89.6447 55.4836 89.7508C55.4191 89.8556 55.3868 89.9752 55.3868 90.1096V92H54.7842ZM60.557 89.6601L60.0109 89.7569C59.988 89.687 59.9518 89.6205 59.902 89.5573C59.8537 89.4942 59.7878 89.4425 59.7045 89.4022C59.6212 89.3618 59.5171 89.3417 59.3921 89.3417C59.2215 89.3417 59.0791 89.38 58.9649 89.4566C58.8507 89.5318 58.7936 89.6292 58.7936 89.7488C58.7936 89.8523 58.8319 89.9356 58.9084 89.9987C58.985 90.0619 59.1086 90.1136 59.2793 90.1539L59.771 90.2668C60.0559 90.3326 60.2682 90.434 60.4079 90.5711C60.5476 90.7081 60.6175 90.8862 60.6175 91.1052C60.6175 91.2906 60.5638 91.4558 60.4563 91.601C60.3501 91.7447 60.2017 91.8576 60.0109 91.9395C59.8214 92.0215 59.6017 92.0625 59.3518 92.0625C59.0052 92.0625 58.7224 91.9886 58.5034 91.8408C58.2843 91.6916 58.15 91.48 58.1003 91.2059L58.6827 91.1173C58.719 91.2691 58.7936 91.384 58.9064 91.4619C59.0193 91.5385 59.1664 91.5768 59.3478 91.5768C59.5453 91.5768 59.7032 91.5358 59.8214 91.4538C59.9397 91.3705 59.9988 91.2691 59.9988 91.1495C59.9988 91.0528 59.9625 90.9715 59.8899 90.9056C59.8187 90.8398 59.7092 90.7901 59.5614 90.7565L59.0374 90.6416C58.7486 90.5758 58.5349 90.471 58.3965 90.3272C58.2595 90.1835 58.191 90.0014 58.191 89.781C58.191 89.5983 58.242 89.4384 58.3441 89.3014C58.4463 89.1643 58.5873 89.0575 58.7674 88.9809C58.9474 88.903 59.1537 88.864 59.3861 88.864C59.7207 88.864 59.984 88.9366 60.1761 89.0817C60.3683 89.2255 60.4952 89.4183 60.557 89.6601ZM61.1666 92V88.9043H61.7692V92H61.1666ZM61.4709 88.4267C61.3661 88.4267 61.2761 88.3918 61.2008 88.3219C61.1269 88.2507 61.09 88.166 61.09 88.068C61.09 87.9685 61.1269 87.8839 61.2008 87.814C61.2761 87.7428 61.3661 87.7072 61.4709 87.7072C61.5757 87.7072 61.665 87.7428 61.7389 87.814C61.8142 87.8839 61.8518 87.9685 61.8518 88.068C61.8518 88.166 61.8142 88.2507 61.7389 88.3219C61.665 88.3918 61.5757 88.4267 61.4709 88.4267ZM63.9114 88.9043V89.388H62.2205V88.9043H63.9114ZM62.6739 88.1627H63.2765V91.0911C63.2765 91.2079 63.294 91.296 63.3289 91.3551C63.3639 91.4128 63.4089 91.4525 63.464 91.474C63.5204 91.4941 63.5815 91.5042 63.6474 91.5042C63.6957 91.5042 63.7381 91.5009 63.7743 91.4941C63.8106 91.4874 63.8388 91.482 63.859 91.478L63.9678 91.9758C63.9329 91.9893 63.8832 92.0027 63.8187 92.0161C63.7542 92.0309 63.6736 92.039 63.5768 92.0403C63.4183 92.043 63.2705 92.0148 63.1334 91.9557C62.9964 91.8965 62.8856 91.8052 62.8009 91.6816C62.7163 91.558 62.6739 91.4028 62.6739 91.216V88.1627ZM66.7538 92.0685C66.5577 92.0685 66.3803 92.0322 66.2218 91.9597C66.0632 91.8858 65.9376 91.779 65.8449 91.6392C65.7535 91.4995 65.7078 91.3282 65.7078 91.1253C65.7078 90.9506 65.7414 90.8069 65.8086 90.694C65.8758 90.5812 65.9665 90.4918 66.0807 90.426C66.1949 90.3601 66.3225 90.3104 66.4636 90.2768C66.6047 90.2432 66.7485 90.2177 66.8949 90.2002C67.0803 90.1788 67.2308 90.1613 67.3464 90.1478C67.4619 90.1331 67.5459 90.1096 67.5983 90.0773C67.6507 90.0451 67.6769 89.9927 67.6769 89.9201V89.906C67.6769 89.73 67.6272 89.5936 67.5277 89.4969C67.4297 89.4001 67.2832 89.3518 67.0884 89.3518C66.8855 89.3518 66.7256 89.3968 66.6087 89.4868C66.4932 89.5755 66.4132 89.6742 66.3689 89.7831L65.8026 89.6541C65.8697 89.466 65.9678 89.3141 66.0968 89.1986C66.2271 89.0817 66.3769 88.9971 66.5462 88.9447C66.7155 88.8909 66.8936 88.864 67.0803 88.864C67.2039 88.864 67.3349 88.8788 67.4733 88.9084C67.6131 88.9366 67.7434 88.989 67.8643 89.0656C67.9866 89.1422 68.0867 89.2517 68.1646 89.3941C68.2425 89.5352 68.2815 89.7186 68.2815 89.9443V92H67.693V91.5768H67.6688C67.6299 91.6547 67.5714 91.7313 67.4935 91.8065C67.4155 91.8818 67.3155 91.9442 67.1932 91.994C67.0709 92.0437 66.9245 92.0685 66.7538 92.0685ZM66.8848 91.5848C67.0514 91.5848 67.1939 91.5519 67.3121 91.4861C67.4317 91.4202 67.5224 91.3342 67.5842 91.2281C67.6473 91.1206 67.6789 91.0057 67.6789 90.8835V90.4844C67.6574 90.5059 67.6157 90.5261 67.5539 90.5449C67.4935 90.5623 67.4243 90.5778 67.3464 90.5912C67.2684 90.6033 67.1925 90.6148 67.1186 90.6255C67.0447 90.6349 66.9829 90.643 66.9332 90.6497C66.8163 90.6645 66.7095 90.6893 66.6127 90.7243C66.5174 90.7592 66.4408 90.8096 66.383 90.8754C66.3266 90.9399 66.2983 91.0259 66.2983 91.1334C66.2983 91.2825 66.3534 91.3954 66.4636 91.472C66.5738 91.5472 66.7142 91.5848 66.8848 91.5848ZM68.9706 92V88.9043H69.549V89.4082H69.5873C69.6518 89.2376 69.7573 89.1045 69.9037 89.0092C70.0502 88.9124 70.2255 88.864 70.4298 88.864C70.6367 88.864 70.81 88.9124 70.9497 89.0092C71.0908 89.1059 71.1949 89.2389 71.2621 89.4082H71.2944C71.3683 89.2429 71.4858 89.1113 71.6471 89.0132C71.8083 88.9138 72.0004 88.864 72.2235 88.864C72.5043 88.864 72.7334 88.952 72.9107 89.1281C73.0894 89.3041 73.1788 89.5694 73.1788 89.9241V92H72.5762V89.9806C72.5762 89.771 72.5191 89.6191 72.4049 89.5251C72.2907 89.431 72.1543 89.384 71.9957 89.384C71.7996 89.384 71.6471 89.4445 71.5382 89.5654C71.4294 89.685 71.375 89.8388 71.375 90.0269V92H70.7744V89.9423C70.7744 89.7743 70.722 89.6393 70.6172 89.5372C70.5124 89.4351 70.376 89.384 70.2081 89.384C70.0939 89.384 69.9884 89.4142 69.8917 89.4747C69.7963 89.5338 69.719 89.6165 69.6599 89.7226C69.6021 89.8287 69.5732 89.9517 69.5732 90.0914V92H68.9706ZM75.2071 92.0625C74.9021 92.0625 74.6395 91.9973 74.4191 91.867C74.2001 91.7353 74.0308 91.5506 73.9112 91.3127C73.793 91.0736 73.7339 90.7934 73.7339 90.4723C73.7339 90.1552 73.793 89.8758 73.9112 89.6339C74.0308 89.3921 74.1974 89.2033 74.411 89.0676C74.626 88.9319 74.8773 88.864 75.1648 88.864C75.3395 88.864 75.5088 88.8929 75.6727 88.9507C75.8366 89.0085 75.9837 89.0992 76.1141 89.2228C76.2444 89.3464 76.3472 89.507 76.4224 89.7045C76.4977 89.9006 76.5353 90.1391 76.5353 90.4199V90.6336H74.0745V90.1821H75.9448C75.9448 90.0236 75.9125 89.8832 75.848 89.7609C75.7835 89.6373 75.6928 89.5399 75.5759 89.4687C75.4604 89.3975 75.3247 89.3618 75.1688 89.3618C74.9995 89.3618 74.8517 89.4035 74.7255 89.4868C74.6005 89.5688 74.5038 89.6762 74.4352 89.8093C74.3681 89.9409 74.3345 90.084 74.3345 90.2385V90.5912C74.3345 90.7982 74.3707 90.9742 74.4433 91.1193C74.5172 91.2644 74.62 91.3752 74.7517 91.4518C74.8833 91.5271 75.0372 91.5647 75.2132 91.5647C75.3274 91.5647 75.4315 91.5486 75.5256 91.5163C75.6196 91.4827 75.7009 91.433 75.7694 91.3672C75.8379 91.3013 75.8903 91.22 75.9266 91.1233L76.497 91.2261C76.4513 91.394 76.3693 91.5412 76.2511 91.6675C76.1342 91.7924 75.9871 91.8898 75.8097 91.9597C75.6337 92.0282 75.4329 92.0625 75.2071 92.0625ZM78.5354 88.9043V89.388H76.8445V88.9043H78.5354ZM77.298 88.1627H77.9006V91.0911C77.9006 91.2079 77.918 91.296 77.953 91.3551C77.9879 91.4128 78.0329 91.4525 78.088 91.474C78.1444 91.4941 78.2056 91.5042 78.2714 91.5042C78.3198 91.5042 78.3621 91.5009 78.3984 91.4941C78.4346 91.4874 78.4629 91.482 78.483 91.478L78.5918 91.9758C78.5569 91.9893 78.5072 92.0027 78.4427 92.0161C78.3782 92.0309 78.2976 92.039 78.2009 92.0403C78.0423 92.043 77.8945 92.0148 77.7575 91.9557C77.6204 91.8965 77.5096 91.8052 77.4249 91.6816C77.3403 91.558 77.298 91.4028 77.298 91.216V88.1627ZM79.8725 91.4357L79.8423 91.6554C79.8221 91.8166 79.7878 91.9845 79.7395 92.1592C79.6924 92.3352 79.6434 92.4985 79.5923 92.649C79.5426 92.7994 79.5017 92.919 79.4694 93.0077H79.0421C79.0596 92.9244 79.0838 92.8115 79.1147 92.6691C79.1456 92.528 79.1758 92.3702 79.2054 92.1955C79.235 92.0208 79.2571 91.8428 79.2719 91.6614L79.2921 91.4357H79.8725ZM9.70808 99.0625C9.40846 99.0625 9.15049 98.9946 8.93417 98.8589C8.71919 98.7219 8.55393 98.5331 8.43838 98.2926C8.32283 98.0521 8.26506 97.7767 8.26506 97.4663C8.26506 97.1519 8.32417 96.8744 8.44241 96.6339C8.56065 96.3921 8.72725 96.2033 8.94223 96.0676C9.15721 95.9319 9.41047 95.864 9.70203 95.864C9.93716 95.864 10.1468 95.9077 10.3308 95.995C10.5149 96.081 10.6634 96.202 10.7762 96.3578C10.8904 96.5137 10.9583 96.6957 10.9798 96.904H10.3933C10.3611 96.7589 10.2872 96.6339 10.1716 96.5291C10.0574 96.4243 9.90425 96.3719 9.71211 96.3719C9.54416 96.3719 9.39704 96.4163 9.27074 96.5049C9.14578 96.5923 9.04837 96.7172 8.97851 96.8798C8.90864 97.041 8.87371 97.2318 8.87371 97.4522C8.87371 97.6779 8.90797 97.8727 8.97649 98.0366C9.04501 98.2006 9.14175 98.3275 9.26671 98.4176C9.39301 98.5076 9.54147 98.5526 9.71211 98.5526C9.82632 98.5526 9.92977 98.5318 10.0225 98.4901C10.1165 98.4471 10.1951 98.386 10.2583 98.3067C10.3228 98.2274 10.3678 98.132 10.3933 98.0205H10.9798C10.9583 98.2207 10.8931 98.3994 10.7843 98.5566C10.6755 98.7138 10.5297 98.8374 10.347 98.9274C10.1656 99.0175 9.95262 99.0625 9.70808 99.0625ZM12.8147 99.0625C12.5245 99.0625 12.2712 98.996 12.0549 98.863C11.8386 98.7299 11.6706 98.5438 11.551 98.3047C11.4314 98.0655 11.3716 97.7861 11.3716 97.4663C11.3716 97.1452 11.4314 96.8644 11.551 96.6238C11.6706 96.3833 11.8386 96.1966 12.0549 96.0636C12.2712 95.9305 12.5245 95.864 12.8147 95.864C13.1049 95.864 13.3582 95.9305 13.5745 96.0636C13.7908 96.1966 13.9587 96.3833 14.0783 96.6238C14.1979 96.8644 14.2577 97.1452 14.2577 97.4663C14.2577 97.7861 14.1979 98.0655 14.0783 98.3047C13.9587 98.5438 13.7908 98.7299 13.5745 98.863C13.3582 98.996 13.1049 99.0625 12.8147 99.0625ZM12.8167 98.5566C13.0048 98.5566 13.1607 98.5069 13.2843 98.4075C13.4079 98.308 13.4992 98.1757 13.5584 98.0104C13.6188 97.8452 13.649 97.6631 13.649 97.4643C13.649 97.2668 13.6188 97.0854 13.5584 96.9201C13.4992 96.7535 13.4079 96.6198 13.2843 96.519C13.1607 96.4183 13.0048 96.3679 12.8167 96.3679C12.6272 96.3679 12.47 96.4183 12.3451 96.519C12.2215 96.6198 12.1294 96.7535 12.069 96.9201C12.0099 97.0854 11.9803 97.2668 11.9803 97.4643C11.9803 97.6631 12.0099 97.8452 12.069 98.0104C12.1294 98.1757 12.2215 98.308 12.3451 98.4075C12.47 98.5069 12.6272 98.5566 12.8167 98.5566ZM15.4194 97.162V99H14.8168V95.9043H15.3952V96.4082H15.4335C15.5048 96.2443 15.6163 96.1126 15.7681 96.0132C15.9213 95.9138 16.1141 95.864 16.3465 95.864C16.5575 95.864 16.7422 95.9084 16.9008 95.9971C17.0593 96.0844 17.1822 96.2147 17.2696 96.388C17.3569 96.5614 17.4006 96.7757 17.4006 97.031V99H16.798V97.1035C16.798 96.8791 16.7395 96.7038 16.6226 96.5775C16.5057 96.4499 16.3452 96.386 16.1409 96.386C16.0012 96.386 15.8769 96.4163 15.7681 96.4767C15.6606 96.5372 15.5753 96.6259 15.5121 96.7428C15.4503 96.8583 15.4194 96.998 15.4194 97.162ZM20.415 96.6601L19.8688 96.7569C19.8459 96.687 19.8097 96.6205 19.76 96.5573C19.7116 96.4942 19.6458 96.4425 19.5624 96.4022C19.4791 96.3618 19.375 96.3417 19.2501 96.3417C19.0794 96.3417 18.937 96.38 18.8228 96.4566C18.7086 96.5318 18.6515 96.6292 18.6515 96.7488C18.6515 96.8523 18.6898 96.9356 18.7664 96.9987C18.843 97.0619 18.9666 97.1136 19.1372 97.1539L19.629 97.2668C19.9138 97.3326 20.1261 97.434 20.2658 97.5711C20.4056 97.7081 20.4754 97.8862 20.4754 98.1052C20.4754 98.2906 20.4217 98.4558 20.3142 98.601C20.208 98.7447 20.0596 98.8576 19.8688 98.9395C19.6793 99.0215 19.4597 99.0625 19.2098 99.0625C18.8631 99.0625 18.5803 98.9886 18.3613 98.8408C18.1423 98.6916 18.0079 98.48 17.9582 98.2059L18.5406 98.1173C18.5769 98.2691 18.6515 98.384 18.7643 98.4619C18.8772 98.5385 19.0243 98.5768 19.2057 98.5768C19.4032 98.5768 19.5611 98.5358 19.6793 98.4538C19.7976 98.3705 19.8567 98.2691 19.8567 98.1495C19.8567 98.0528 19.8204 97.9715 19.7479 97.9056C19.6767 97.8398 19.5671 97.7901 19.4194 97.7565L18.8954 97.6416C18.6065 97.5758 18.3928 97.471 18.2545 97.3272C18.1174 97.1835 18.0489 97.0014 18.0489 96.781C18.0489 96.5983 18.0999 96.4384 18.2021 96.3014C18.3042 96.1643 18.4452 96.0575 18.6253 95.9809C18.8053 95.903 19.0116 95.864 19.244 95.864C19.5786 95.864 19.8419 95.9366 20.0341 96.0817C20.2262 96.2255 20.3532 96.4183 20.415 96.6601ZM22.3587 99.0625C22.0537 99.0625 21.791 98.9973 21.5706 98.867C21.3516 98.7353 21.1823 98.5506 21.0628 98.3127C20.9445 98.0736 20.8854 97.7934 20.8854 97.4723C20.8854 97.1552 20.9445 96.8758 21.0628 96.6339C21.1823 96.3921 21.349 96.2033 21.5626 96.0676C21.7776 95.9319 22.0288 95.864 22.3163 95.864C22.491 95.864 22.6603 95.8929 22.8242 95.9507C22.9881 96.0085 23.1353 96.0992 23.2656 96.2228C23.3959 96.3464 23.4987 96.507 23.574 96.7045C23.6492 96.9006 23.6868 97.1391 23.6868 97.4199V97.6336H21.226V97.1821H23.0963C23.0963 97.0236 23.0641 96.8832 22.9996 96.7609C22.9351 96.6373 22.8444 96.5399 22.7275 96.4687C22.6119 96.3975 22.4762 96.3618 22.3204 96.3618C22.1511 96.3618 22.0033 96.4035 21.877 96.4868C21.752 96.5688 21.6553 96.6762 21.5868 96.8093C21.5196 96.9409 21.486 97.084 21.486 97.2385V97.5912C21.486 97.7982 21.5223 97.9742 21.5948 98.1193C21.6687 98.2644 21.7715 98.3752 21.9032 98.4518C22.0349 98.5271 22.1887 98.5647 22.3647 98.5647C22.4789 98.5647 22.5831 98.5486 22.6771 98.5163C22.7712 98.4827 22.8524 98.433 22.921 98.3672C22.9895 98.3013 23.0419 98.22 23.0782 98.1233L23.6485 98.2261C23.6028 98.394 23.5209 98.5412 23.4026 98.6675C23.2858 98.7924 23.1386 98.8898 22.9613 98.9597C22.7853 99.0282 22.5844 99.0625 22.3587 99.0625ZM25.5459 99.0625C25.2463 99.0625 24.9883 98.9946 24.772 98.8589C24.557 98.7219 24.3917 98.5331 24.2762 98.2926C24.1606 98.0521 24.1029 97.7767 24.1029 97.4663C24.1029 97.1519 24.162 96.8744 24.2802 96.6339C24.3984 96.3921 24.5651 96.2033 24.78 96.0676C24.995 95.9319 25.2483 95.864 25.5398 95.864C25.775 95.864 25.9846 95.9077 26.1686 95.995C26.3527 96.081 26.5012 96.202 26.614 96.3578C26.7282 96.5137 26.7961 96.6957 26.8176 96.904H26.2311C26.1989 96.7589 26.125 96.6339 26.0094 96.5291C25.8952 96.4243 25.742 96.3719 25.5499 96.3719C25.382 96.3719 25.2348 96.4163 25.1085 96.5049C24.9836 96.5923 24.8862 96.7172 24.8163 96.8798C24.7464 97.041 24.7115 97.2318 24.7115 97.4522C24.7115 97.6779 24.7458 97.8727 24.8143 98.0366C24.8828 98.2006 24.9796 98.3275 25.1045 98.4176C25.2308 98.5076 25.3793 98.5526 25.5499 98.5526C25.6641 98.5526 25.7676 98.5318 25.8603 98.4901C25.9543 98.4471 26.0329 98.386 26.0961 98.3067C26.1606 98.2274 26.2056 98.132 26.2311 98.0205H26.8176C26.7961 98.2207 26.7309 98.3994 26.6221 98.5566C26.5133 98.7138 26.3675 98.8374 26.1848 98.9274C26.0034 99.0175 25.7904 99.0625 25.5459 99.0625ZM28.7936 95.9043V96.388H27.1026V95.9043H28.7936ZM27.5561 95.1627H28.1587V98.0911C28.1587 98.2079 28.1762 98.296 28.2111 98.3551C28.246 98.4128 28.291 98.4525 28.3461 98.474C28.4026 98.4941 28.4637 98.5042 28.5295 98.5042C28.5779 98.5042 28.6202 98.5009 28.6565 98.4941C28.6928 98.4874 28.721 98.482 28.7412 98.478L28.85 98.9758C28.815 98.9893 28.7653 99.0027 28.7008 99.0161C28.6364 99.0309 28.5557 99.039 28.459 99.0403C28.3005 99.043 28.1527 99.0148 28.0156 98.9557C27.8786 98.8965 27.7677 98.8052 27.6831 98.6816C27.5984 98.558 27.5561 98.4028 27.5561 98.216V95.1627ZM30.6476 99.0625C30.3426 99.0625 30.0799 98.9973 29.8596 98.867C29.6406 98.7353 29.4713 98.5506 29.3517 98.3127C29.2334 98.0736 29.1743 97.7934 29.1743 97.4723C29.1743 97.1552 29.2334 96.8758 29.3517 96.6339C29.4713 96.3921 29.6379 96.2033 29.8515 96.0676C30.0665 95.9319 30.3177 95.864 30.6053 95.864C30.7799 95.864 30.9492 95.8929 31.1131 95.9507C31.2771 96.0085 31.4242 96.0992 31.5545 96.2228C31.6848 96.3464 31.7876 96.507 31.8629 96.7045C31.9381 96.9006 31.9757 97.1391 31.9757 97.4199V97.6336H29.5149V97.1821H31.3852C31.3852 97.0236 31.353 96.8832 31.2885 96.7609C31.224 96.6373 31.1333 96.5399 31.0164 96.4687C30.9008 96.3975 30.7651 96.3618 30.6093 96.3618C30.44 96.3618 30.2922 96.4035 30.1659 96.4868C30.0409 96.5688 29.9442 96.6762 29.8757 96.8093C29.8085 96.9409 29.7749 97.084 29.7749 97.2385V97.5912C29.7749 97.7982 29.8112 97.9742 29.8837 98.1193C29.9576 98.2644 30.0604 98.3752 30.1921 98.4518C30.3238 98.5271 30.4776 98.5647 30.6536 98.5647C30.7678 98.5647 30.872 98.5486 30.966 98.5163C31.0601 98.4827 31.1413 98.433 31.2099 98.3672C31.2784 98.3013 31.3308 98.22 31.3671 98.1233L31.9374 98.2261C31.8917 98.394 31.8098 98.5412 31.6916 98.6675C31.5747 98.7924 31.4275 98.8898 31.2502 98.9597C31.0742 99.0282 30.8733 99.0625 30.6476 99.0625ZM33.9759 95.9043V96.388H32.2849V95.9043H33.9759ZM32.7384 95.1627H33.341V98.0911C33.341 98.2079 33.3585 98.296 33.3934 98.3551C33.4283 98.4128 33.4734 98.4525 33.5284 98.474C33.5849 98.4941 33.646 98.5042 33.7118 98.5042C33.7602 98.5042 33.8025 98.5009 33.8388 98.4941C33.8751 98.4874 33.9033 98.482 33.9235 98.478L34.0323 98.9758C33.9974 98.9893 33.9476 99.0027 33.8832 99.0161C33.8187 99.0309 33.738 99.039 33.6413 99.0403C33.4828 99.043 33.335 99.0148 33.1979 98.9557C33.0609 98.8965 32.95 98.8052 32.8654 98.6816C32.7807 98.558 32.7384 98.4028 32.7384 98.216V95.1627ZM36.4899 97.7162V95.9043H37.0946V99H36.502V98.4639H36.4698C36.3986 98.6292 36.2844 98.7669 36.1272 98.8771C35.9713 98.9859 35.7772 99.0403 35.5447 99.0403C35.3459 99.0403 35.1698 98.9966 35.0167 98.9093C34.8649 98.8206 34.7453 98.6896 34.6579 98.5163C34.5719 98.343 34.529 98.1287 34.529 97.8734V95.9043H35.1316V97.8008C35.1316 98.0118 35.19 98.1797 35.3069 98.3047C35.4238 98.4296 35.5756 98.4921 35.7624 98.4921C35.8752 98.4921 35.9874 98.4639 36.0989 98.4075C36.2118 98.351 36.3052 98.2657 36.3791 98.1515C36.4543 98.0373 36.4913 97.8922 36.4899 97.7162ZM37.7907 99V95.9043H38.3732V96.3961H38.4054C38.4619 96.2295 38.5613 96.0985 38.7037 96.0031C38.8475 95.9064 39.01 95.858 39.1914 95.858C39.2291 95.858 39.2734 95.8593 39.3244 95.862C39.3768 95.8647 39.4178 95.8681 39.4474 95.8721V96.4485C39.4232 96.4418 39.3802 96.4344 39.3184 96.4263C39.2566 96.4169 39.1948 96.4122 39.133 96.4122C38.9906 96.4122 38.8636 96.4425 38.7521 96.5029C38.6419 96.562 38.5546 96.6447 38.4901 96.7508C38.4256 96.8556 38.3933 96.9752 38.3933 97.1096V99H37.7907ZM42.1447 99.0685C41.9485 99.0685 41.7712 99.0322 41.6127 98.9597C41.4541 98.8858 41.3285 98.779 41.2358 98.6392C41.1444 98.4995 41.0987 98.3282 41.0987 98.1253C41.0987 97.9506 41.1323 97.8069 41.1995 97.694C41.2667 97.5812 41.3574 97.4918 41.4716 97.426C41.5858 97.3601 41.7134 97.3104 41.8545 97.2768C41.9956 97.2432 42.1393 97.2177 42.2858 97.2002C42.4712 97.1788 42.6217 97.1613 42.7372 97.1478C42.8528 97.1331 42.9368 97.1096 42.9892 97.0773C43.0416 97.0451 43.0678 96.9927 43.0678 96.9201V96.906C43.0678 96.73 43.0181 96.5936 42.9186 96.4969C42.8205 96.4001 42.6741 96.3518 42.4793 96.3518C42.2764 96.3518 42.1165 96.3968 41.9996 96.4868C41.8841 96.5755 41.8041 96.6742 41.7598 96.7831L41.1934 96.6541C41.2606 96.466 41.3587 96.3141 41.4877 96.1986C41.618 96.0817 41.7678 95.9971 41.9371 95.9447C42.1064 95.8909 42.2844 95.864 42.4712 95.864C42.5948 95.864 42.7258 95.8788 42.8642 95.9084C43.0039 95.9366 43.1343 95.989 43.2552 96.0656C43.3775 96.1422 43.4776 96.2517 43.5555 96.3941C43.6334 96.5352 43.6724 96.7186 43.6724 96.9443V99H43.0839V98.5768H43.0597C43.0207 98.6547 42.9623 98.7313 42.8844 98.8065C42.8064 98.8818 42.7063 98.9442 42.5841 98.994C42.4618 99.0437 42.3154 99.0685 42.1447 99.0685ZM42.2757 98.5848C42.4423 98.5848 42.5847 98.5519 42.703 98.4861C42.8226 98.4202 42.9133 98.3342 42.9751 98.2281C43.0382 98.1206 43.0698 98.0057 43.0698 97.8835V97.4844C43.0483 97.5059 43.0066 97.5261 42.9448 97.5449C42.8844 97.5623 42.8152 97.5778 42.7372 97.5912C42.6593 97.6033 42.5834 97.6148 42.5095 97.6255C42.4356 97.6349 42.3738 97.643 42.3241 97.6497C42.2072 97.6645 42.1004 97.6893 42.0036 97.7243C41.9082 97.7592 41.8317 97.8096 41.7739 97.8754C41.7175 97.9399 41.6892 98.0259 41.6892 98.1334C41.6892 98.2825 41.7443 98.3954 41.8545 98.472C41.9647 98.5472 42.1051 98.5848 42.2757 98.5848ZM45.5204 99.0605C45.2705 99.0605 45.0474 98.9966 44.8512 98.869C44.6564 98.74 44.5033 98.5566 44.3917 98.3188C44.2816 98.0796 44.2265 97.7928 44.2265 97.4582C44.2265 97.1237 44.2822 96.8375 44.3938 96.5997C44.5066 96.3618 44.6611 96.1798 44.8573 96.0535C45.0535 95.9272 45.2758 95.864 45.5244 95.864C45.7165 95.864 45.871 95.8963 45.9879 95.9608C46.1062 96.0239 46.1975 96.0978 46.262 96.1825C46.3279 96.2671 46.3789 96.3417 46.4152 96.4062H46.4515V94.8725H47.0541V99H46.4656V98.5183H46.4152C46.3789 98.5842 46.3265 98.6594 46.258 98.744C46.1908 98.8287 46.0981 98.9026 45.9799 98.9657C45.8616 99.0289 45.7085 99.0605 45.5204 99.0605ZM45.6534 98.5465C45.8267 98.5465 45.9732 98.5009 46.0927 98.4095C46.2137 98.3168 46.305 98.1885 46.3668 98.0245C46.43 97.8606 46.4616 97.6698 46.4616 97.4522C46.4616 97.2372 46.4306 97.0491 46.3688 96.8879C46.307 96.7266 46.2163 96.601 46.0968 96.511C45.9772 96.421 45.8294 96.376 45.6534 96.376C45.472 96.376 45.3208 96.423 45.1999 96.517C45.079 96.6111 44.9876 96.7394 44.9258 96.902C44.8654 97.0645 44.8351 97.2479 44.8351 97.4522C44.8351 97.6591 44.866 97.8452 44.9278 98.0104C44.9896 98.1757 45.081 98.3067 45.2019 98.4034C45.3242 98.4988 45.4747 98.5465 45.6534 98.5465ZM47.8006 99V95.9043H48.4032V99H47.8006ZM48.105 95.4267C48.0002 95.4267 47.9101 95.3918 47.8349 95.3219C47.761 95.2507 47.7241 95.166 47.7241 95.068C47.7241 94.9685 47.761 94.8839 47.8349 94.814C47.9101 94.7428 48.0002 94.7072 48.105 94.7072C48.2098 94.7072 48.2991 94.7428 48.373 94.814C48.4483 94.8839 48.4859 94.9685 48.4859 95.068C48.4859 95.166 48.4483 95.2507 48.373 95.3219C48.2991 95.3918 48.2098 95.4267 48.105 95.4267ZM49.1004 100.161V95.9043H49.6889V96.4062H49.7393C49.7742 96.3417 49.8246 96.2671 49.8905 96.1825C49.9563 96.0978 50.0477 96.0239 50.1646 95.9608C50.2815 95.8963 50.436 95.864 50.6281 95.864C50.878 95.864 51.1011 95.9272 51.2972 96.0535C51.4934 96.1798 51.6472 96.3618 51.7587 96.5997C51.8716 96.8375 51.928 97.1237 51.928 97.4582C51.928 97.7928 51.8723 98.0796 51.7608 98.3188C51.6492 98.5566 51.4961 98.74 51.3012 98.869C51.1064 98.9966 50.8841 99.0605 50.6342 99.0605C50.446 99.0605 50.2922 99.0289 50.1726 98.9657C50.0544 98.9026 49.9617 98.8287 49.8945 98.744C49.8273 98.6594 49.7756 98.5842 49.7393 98.5183H49.703V100.161H49.1004ZM49.6909 97.4522C49.6909 97.6698 49.7225 97.8606 49.7857 98.0245C49.8488 98.1885 49.9402 98.3168 50.0598 98.4095C50.1793 98.5009 50.3258 98.5465 50.4991 98.5465C50.6792 98.5465 50.8296 98.4988 50.9506 98.4034C51.0715 98.3067 51.1629 98.1757 51.2247 98.0104C51.2878 97.8452 51.3194 97.6591 51.3194 97.4522C51.3194 97.2479 51.2885 97.0645 51.2267 96.902C51.1662 96.7394 51.0749 96.6111 50.9526 96.517C50.8317 96.423 50.6805 96.376 50.4991 96.376C50.3245 96.376 50.1767 96.421 50.0557 96.511C49.9362 96.601 49.8455 96.7266 49.7837 96.8879C49.7218 97.0491 49.6909 97.2372 49.6909 97.4522ZM52.4897 99V95.9043H53.0923V99H52.4897ZM52.794 95.4267C52.6892 95.4267 52.5992 95.3918 52.524 95.3219C52.4501 95.2507 52.4131 95.166 52.4131 95.068C52.4131 94.9685 52.4501 94.8839 52.524 94.814C52.5992 94.7428 52.6892 94.7072 52.794 94.7072C52.8988 94.7072 52.9882 94.7428 53.0621 94.814C53.1373 94.8839 53.1749 94.9685 53.1749 95.068C53.1749 95.166 53.1373 95.2507 53.0621 95.3219C52.9882 95.3918 52.8988 95.4267 52.794 95.4267ZM56.1092 96.6601L55.563 96.7569C55.5402 96.687 55.5039 96.6205 55.4542 96.5573C55.4058 96.4942 55.34 96.4425 55.2567 96.4022C55.1734 96.3618 55.0693 96.3417 54.9443 96.3417C54.7737 96.3417 54.6312 96.38 54.517 96.4566C54.4028 96.5318 54.3457 96.6292 54.3457 96.7488C54.3457 96.8523 54.384 96.9356 54.4606 96.9987C54.5372 97.0619 54.6608 97.1136 54.8314 97.1539L55.3232 97.2668C55.608 97.3326 55.8203 97.434 55.9601 97.5711C56.0998 97.7081 56.1697 97.8862 56.1697 98.1052C56.1697 98.2906 56.1159 98.4558 56.0084 98.601C55.9023 98.7447 55.7538 98.8576 55.563 98.9395C55.3736 99.0215 55.1539 99.0625 54.904 99.0625C54.5573 99.0625 54.2745 98.9886 54.0555 98.8408C53.8365 98.6916 53.7021 98.48 53.6524 98.2059L54.2349 98.1173C54.2712 98.2691 54.3457 98.384 54.4586 98.4619C54.5715 98.5385 54.7186 98.5768 54.9 98.5768C55.0975 98.5768 55.2553 98.5358 55.3736 98.4538C55.4918 98.3705 55.5509 98.2691 55.5509 98.1495C55.5509 98.0528 55.5147 97.9715 55.4421 97.9056C55.3709 97.8398 55.2614 97.7901 55.1136 97.7565L54.5896 97.6416C54.3007 97.5758 54.0871 97.471 53.9487 97.3272C53.8116 97.1835 53.7431 97.0014 53.7431 96.781C53.7431 96.5983 53.7942 96.4384 53.8963 96.3014C53.9984 96.1643 54.1395 96.0575 54.3195 95.9809C54.4996 95.903 54.7058 95.864 54.9383 95.864C55.2728 95.864 55.5362 95.9366 55.7283 96.0817C55.9204 96.2255 56.0474 96.4183 56.1092 96.6601ZM58.0227 99.0625C57.7231 99.0625 57.4651 98.9946 57.2488 98.8589C57.0338 98.7219 56.8685 98.5331 56.753 98.2926C56.6374 98.0521 56.5797 97.7767 56.5797 97.4663C56.5797 97.1519 56.6388 96.8744 56.757 96.6339C56.8752 96.3921 57.0419 96.2033 57.2568 96.0676C57.4718 95.9319 57.7251 95.864 58.0166 95.864C58.2518 95.864 58.4614 95.9077 58.6454 95.995C58.8295 96.081 58.978 96.202 59.0908 96.3578C59.205 96.5137 59.2729 96.6957 59.2944 96.904H58.7079C58.6757 96.7589 58.6018 96.6339 58.4862 96.5291C58.372 96.4243 58.2188 96.3719 58.0267 96.3719C57.8588 96.3719 57.7116 96.4163 57.5853 96.5049C57.4604 96.5923 57.363 96.7172 57.2931 96.8798C57.2232 97.041 57.1883 97.2318 57.1883 97.4522C57.1883 97.6779 57.2226 97.8727 57.2911 98.0366C57.3596 98.2006 57.4564 98.3275 57.5813 98.4176C57.7076 98.5076 57.8561 98.5526 58.0267 98.5526C58.1409 98.5526 58.2444 98.5318 58.3371 98.4901C58.4311 98.4471 58.5097 98.386 58.5729 98.3067C58.6374 98.2274 58.6824 98.132 58.7079 98.0205H59.2944C59.2729 98.2207 59.2077 98.3994 59.0989 98.5566C58.9901 98.7138 58.8443 98.8374 58.6616 98.9274C58.4802 99.0175 58.2672 99.0625 58.0227 99.0625ZM59.8253 99V95.9043H60.4279V99H59.8253ZM60.1296 95.4267C60.0248 95.4267 59.9348 95.3918 59.8596 95.3219C59.7857 95.2507 59.7487 95.166 59.7487 95.068C59.7487 94.9685 59.7857 94.8839 59.8596 94.814C59.9348 94.7428 60.0248 94.7072 60.1296 94.7072C60.2344 94.7072 60.3238 94.7428 60.3977 94.814C60.4729 94.8839 60.5105 94.9685 60.5105 95.068C60.5105 95.166 60.4729 95.2507 60.3977 95.3219C60.3238 95.3918 60.2344 95.4267 60.1296 95.4267ZM61.7277 97.162V99H61.1251V95.9043H61.7035V96.4082H61.7418C61.813 96.2443 61.9245 96.1126 62.0764 96.0132C62.2295 95.9138 62.4223 95.864 62.6548 95.864C62.8657 95.864 63.0505 95.9084 63.209 95.9971C63.3676 96.0844 63.4905 96.2147 63.5778 96.388C63.6652 96.5614 63.7088 96.7757 63.7088 97.031V99H63.1062V97.1035C63.1062 96.8791 63.0478 96.7038 62.9309 96.5775C62.814 96.4499 62.6534 96.386 62.4492 96.386C62.3095 96.386 62.1852 96.4163 62.0764 96.4767C61.9689 96.5372 61.8836 96.6259 61.8204 96.7428C61.7586 96.8583 61.7277 96.998 61.7277 97.162ZM65.7014 100.225C65.4555 100.225 65.2439 100.193 65.0666 100.129C64.8906 100.064 64.7468 99.9788 64.6353 99.8727C64.5238 99.7665 64.4405 99.6503 64.3854 99.524L64.9033 99.3104C64.9396 99.3695 64.988 99.432 65.0484 99.4978C65.1102 99.565 65.1935 99.6221 65.2983 99.6691C65.4045 99.7161 65.5409 99.7397 65.7075 99.7397C65.9359 99.7397 66.1247 99.6839 66.2738 99.5724C66.4229 99.4622 66.4975 99.2862 66.4975 99.0443V98.4357H66.4592C66.4229 98.5015 66.3705 98.5748 66.302 98.6554C66.2348 98.736 66.1421 98.8059 66.0239 98.865C65.9057 98.9241 65.7518 98.9536 65.5624 98.9536C65.3178 98.9536 65.0975 98.8965 64.9013 98.7823C64.7065 98.6668 64.552 98.4968 64.4378 98.2724C64.3249 98.0467 64.2685 97.7693 64.2685 97.4401C64.2685 97.1109 64.3242 96.8287 64.4358 96.5936C64.5486 96.3585 64.7031 96.1784 64.8993 96.0535C65.0955 95.9272 65.3178 95.864 65.5664 95.864C65.7585 95.864 65.9137 95.8963 66.0319 95.9608C66.1502 96.0239 66.2422 96.0978 66.3081 96.1825C66.3752 96.2671 66.427 96.3417 66.4632 96.4062H66.5076V95.9043H67.0981V99.0685C67.0981 99.3346 67.0363 99.5529 66.9127 99.7235C66.7891 99.8942 66.6218 100.02 66.4108 100.102C66.2012 100.184 65.9648 100.225 65.7014 100.225ZM65.6954 98.4538C65.8687 98.4538 66.0152 98.4135 66.1347 98.3329C66.2557 98.2509 66.347 98.1341 66.4088 97.9822C66.472 97.8291 66.5036 97.6457 66.5036 97.432C66.5036 97.2238 66.4726 97.0404 66.4108 96.8818C66.349 96.7233 66.2583 96.5997 66.1388 96.511C66.0192 96.421 65.8714 96.376 65.6954 96.376C65.514 96.376 65.3628 96.423 65.2419 96.517C65.121 96.6097 65.0296 96.736 64.9678 96.8959C64.9074 97.0558 64.8771 97.2345 64.8771 97.432C64.8771 97.6349 64.908 97.8129 64.9698 97.9661C65.0316 98.1193 65.123 98.2389 65.2439 98.3248C65.3662 98.4108 65.5167 98.4538 65.6954 98.4538ZM70.5154 99.0625C70.2104 99.0625 69.9478 98.9973 69.7274 98.867C69.5084 98.7353 69.3391 98.5506 69.2195 98.3127C69.1013 98.0736 69.0422 97.7934 69.0422 97.4723C69.0422 97.1552 69.1013 96.8758 69.2195 96.6339C69.3391 96.3921 69.5057 96.2033 69.7193 96.0676C69.9343 95.9319 70.1856 95.864 70.4731 95.864C70.6478 95.864 70.8171 95.8929 70.981 95.9507C71.1449 96.0085 71.292 96.0992 71.4224 96.2228C71.5527 96.3464 71.6555 96.507 71.7307 96.7045C71.8059 96.9006 71.8436 97.1391 71.8436 97.4199V97.6336H69.3828V97.1821H71.2531C71.2531 97.0236 71.2208 96.8832 71.1563 96.7609C71.0918 96.6373 71.0011 96.5399 70.8842 96.4687C70.7687 96.3975 70.633 96.3618 70.4771 96.3618C70.3078 96.3618 70.16 96.4035 70.0337 96.4868C69.9088 96.5688 69.812 96.6762 69.7435 96.8093C69.6763 96.9409 69.6428 97.084 69.6428 97.2385V97.5912C69.6428 97.7982 69.679 97.9742 69.7516 98.1193C69.8255 98.2644 69.9283 98.3752 70.0599 98.4518C70.1916 98.5271 70.3455 98.5647 70.5215 98.5647C70.6357 98.5647 70.7398 98.5486 70.8339 98.5163C70.9279 98.4827 71.0092 98.433 71.0777 98.3672C71.1462 98.3013 71.1986 98.22 71.2349 98.1233L71.8053 98.2261C71.7596 98.394 71.6776 98.5412 71.5594 98.6675C71.4425 98.7924 71.2954 98.8898 71.118 98.9597C70.942 99.0282 70.7411 99.0625 70.5154 99.0625ZM73.0013 94.8725V99H72.3987V94.8725H73.0013ZM73.6985 99V95.9043H74.3011V99H73.6985ZM74.0028 95.4267C73.898 95.4267 73.808 95.3918 73.7327 95.3219C73.6588 95.2507 73.6219 95.166 73.6219 95.068C73.6219 94.9685 73.6588 94.8839 73.7327 94.814C73.808 94.7428 73.898 94.7072 74.0028 94.7072C74.1076 94.7072 74.1969 94.7428 74.2708 94.814C74.3461 94.8839 74.3837 94.9685 74.3837 95.068C74.3837 95.166 74.3461 95.2507 74.2708 95.3219C74.1969 95.3918 74.1076 95.4267 74.0028 95.4267ZM76.4433 95.9043V96.388H74.7524V95.9043H76.4433ZM75.2058 95.1627H75.8084V98.0911C75.8084 98.2079 75.8259 98.296 75.8608 98.3551C75.8958 98.4128 75.9408 98.4525 75.9959 98.474C76.0523 98.4941 76.1134 98.5042 76.1793 98.5042C76.2276 98.5042 76.27 98.5009 76.3062 98.4941C76.3425 98.4874 76.3707 98.482 76.3909 98.478L76.4997 98.9758C76.4648 98.9893 76.4151 99.0027 76.3506 99.0161C76.2861 99.0309 76.2055 99.039 76.1087 99.0403C75.9502 99.043 75.8024 99.0148 75.6653 98.9557C75.5283 98.8965 75.4175 98.8052 75.3328 98.6816C75.2482 98.558 75.2058 98.4028 75.2058 98.216V95.1627ZM77.3934 99.0383C77.2832 99.0383 77.1885 98.9993 77.1092 98.9214C77.03 98.8421 76.9903 98.7467 76.9903 98.6352C76.9903 98.525 77.03 98.431 77.1092 98.3531C77.1885 98.2738 77.2832 98.2341 77.3934 98.2341C77.5036 98.2341 77.5983 98.2738 77.6776 98.3531C77.7569 98.431 77.7965 98.525 77.7965 98.6352C77.7965 98.7091 77.7777 98.777 77.7401 98.8388C77.7038 98.8992 77.6554 98.9476 77.595 98.9839C77.5345 99.0202 77.4673 99.0383 77.3934 99.0383Z" fill="white"/>
<rect x="7.99902" y="104" width="29" height="10" fill="white"/>
<circle cx="120.577" cy="72.3465" r="36.6429" fill="white"/>
<circle cx="77.3565" cy="42.2803" r="11.5879" fill="white"/>
<circle cx="57.9396" cy="42.2799" r="4.07143" fill="white"/>
<circle cx="69.8404" cy="68.588" r="7.82967" fill="white"/>
<circle cx="163.483" cy="78.9229" r="3.13187" fill="white"/>
<circle cx="143.439" cy="113.373" r="4.38462" fill="white"/>
<circle cx="160.666" cy="103.665" r="7.82967" fill="white"/>
</svg>
