<svg width="523" height="523" viewBox="0 0 523 523" fill="none" xmlns="http://www.w3.org/2000/svg">
<rect width="523" height="523" rx="18" fill="#202A45"/>
<path d="M151.771 271.958C151.771 242.584 175.584 218.771 204.958 218.771H261.229V328.229H204.958C175.584 328.229 151.771 304.416 151.771 275.042V271.958Z" fill="white" stroke="#202A45" stroke-width="1.54167"/>
<path d="M151.771 382.958C151.771 353.584 175.584 329.771 204.958 329.771H261.229V386.042C261.229 415.416 237.416 439.229 208.042 439.229H204.958C175.584 439.229 151.771 415.416 151.771 386.042V382.958Z" fill="white" stroke="#202A45" stroke-width="1.54167"/>
<path d="M151.771 160.958C151.771 131.584 175.584 107.771 204.958 107.771H261.229V217.229H204.958C175.584 217.229 151.771 193.416 151.771 164.042V160.958Z" fill="white" stroke="#202A45" stroke-width="1.54167"/>
<rect x="262.771" y="218.771" width="109.458" height="109.458" rx="54.7292" fill="white" stroke="#202A45" stroke-width="1.54167"/>
<path d="M262.771 107.771H317.5C318.936 107.771 319.641 107.771 320.235 107.784C348.675 108.423 371.577 131.325 372.216 159.765C372.229 160.359 372.229 161.064 372.229 162.5C372.229 163.936 372.229 164.641 372.216 165.235C371.577 193.675 348.675 216.577 320.235 217.216C319.641 217.229 318.936 217.229 317.5 217.229H262.771V107.771Z" fill="white" stroke="#202A45" stroke-width="1.54167"/>
</svg>
