<svg width="368" height="514" viewBox="0 0 368 514" fill="none" xmlns="http://www.w3.org/2000/svg">
<rect x="195.5" y="69.5" width="171" height="95" rx="7.5" stroke="#202A45" stroke-width="3"/>
<rect x="210" y="80" width="43" height="35" stroke="#0F4BBE" stroke-width="2"/>
<rect x="261" y="80" width="93" height="76" stroke="#0F4BBE" stroke-width="2"/>
<rect x="210" y="121" width="43" height="35" stroke="#0F4BBE" stroke-width="2"/>
<rect x="195.5" y="185.5" width="171" height="95" rx="7.5" stroke="#202A45" stroke-width="3"/>
<rect x="210" y="200" width="31" height="66" stroke="#0F4BBE" stroke-width="2"/>
<rect x="247" y="200" width="31" height="66" stroke="#0F4BBE" stroke-width="2"/>
<rect x="284" y="200" width="31" height="66" stroke="#0F4BBE" stroke-width="2"/>
<rect x="321" y="200" width="31" height="66" stroke="#0F4BBE" stroke-width="2"/>
<rect x="195.5" y="301.5" width="171" height="95" rx="7.5" stroke="#202A45" stroke-width="3"/>
<rect x="210" y="310" width="142" height="35" stroke="#0F4BBE" stroke-width="2"/>
<rect x="210" y="353" width="142" height="35" stroke="#0F4BBE" stroke-width="2"/>
<rect x="195.5" y="417.5" width="171" height="95" rx="7.5" stroke="#202A45" stroke-width="3"/>
<rect x="210" y="432" width="142" height="66" stroke="#0F4BBE" stroke-width="2"/>
<rect x="1.5" y="1.5" width="171" height="95" rx="7.5" stroke="#202A45" stroke-width="3"/>
<rect x="13" y="16" width="33" height="18" stroke="#0F4BBE" stroke-width="2"/>
<rect x="51" y="16" width="33" height="18" stroke="#0F4BBE" stroke-width="2"/>
<rect x="89" y="16" width="33" height="18" stroke="#0F4BBE" stroke-width="2"/>
<rect x="127" y="16" width="33" height="18" stroke="#0F4BBE" stroke-width="2"/>
<rect x="13" y="40" width="33" height="18" stroke="#0F4BBE" stroke-width="2"/>
<rect x="51" y="40" width="33" height="18" stroke="#0F4BBE" stroke-width="2"/>
<rect x="89" y="40" width="33" height="18" stroke="#0F4BBE" stroke-width="2"/>
<rect x="127" y="40" width="33" height="18" stroke="#0F4BBE" stroke-width="2"/>
<rect x="13" y="64" width="33" height="18" stroke="#0F4BBE" stroke-width="2"/>
<rect x="51" y="64" width="33" height="18" stroke="#0F4BBE" stroke-width="2"/>
<rect x="89" y="64" width="33" height="18" stroke="#0F4BBE" stroke-width="2"/>
<rect x="127" y="64" width="33" height="18" stroke="#0F4BBE" stroke-width="2"/>
<rect x="1.5" y="117.5" width="171" height="95" rx="7.5" stroke="#202A45" stroke-width="3"/>
<rect x="15" y="132" width="14" height="66" stroke="#0F4BBE" stroke-width="2"/>
<rect x="88" y="132" width="14" height="66" stroke="#0F4BBE" stroke-width="2"/>
<rect x="33" y="132" width="15" height="66" stroke="#0F4BBE" stroke-width="2"/>
<rect x="106" y="132" width="15" height="66" stroke="#0F4BBE" stroke-width="2"/>
<rect x="51" y="132" width="15" height="66" stroke="#0F4BBE" stroke-width="2"/>
<rect x="124" y="132" width="15" height="66" stroke="#0F4BBE" stroke-width="2"/>
<rect x="70" y="132" width="14" height="66" stroke="#0F4BBE" stroke-width="2"/>
<rect x="143" y="132" width="14" height="66" stroke="#0F4BBE" stroke-width="2"/>
<rect x="1.5" y="233.5" width="171" height="95" rx="7.5" stroke="#202A45" stroke-width="3"/>
<rect x="15" y="242" width="43" height="35" stroke="#0F4BBE" stroke-width="2"/>
<rect x="66" y="242" width="43" height="35" stroke="#0F4BBE" stroke-width="2"/>
<rect x="117" y="242" width="43" height="35" stroke="#0F4BBE" stroke-width="2"/>
<rect x="15" y="285" width="43" height="35" stroke="#0F4BBE" stroke-width="2"/>
<rect x="66" y="285" width="43" height="35" stroke="#0F4BBE" stroke-width="2"/>
<rect x="117" y="285" width="43" height="35" stroke="#0F4BBE" stroke-width="2"/>
<path d="M1 380H172.5" stroke="#0F4BBE" stroke-width="2"/>
<path d="M57 348L57 446" stroke="#0F4BBE" stroke-width="2"/>
<path d="M115 348L115 446" stroke="#0F4BBE" stroke-width="2"/>
<path d="M1 412H172.5" stroke="#0F4BBE" stroke-width="2"/>
<rect x="1.5" y="349.5" width="171" height="95" rx="7.5" stroke="#202A45" stroke-width="3"/>
</svg>
