<svg width="171" height="292" viewBox="0 0 171 292" fill="none" xmlns="http://www.w3.org/2000/svg">
<rect width="171" height="292" rx="8" fill="white"/>
<rect x="8" y="12" width="18" height="5" rx="2.5" fill="#202A45"/>
<rect x="30" y="12" width="60" height="5" rx="2.5" fill="#202A45"/>
<rect x="18" y="30" width="26" height="5" rx="2.5" fill="#0F4BBE"/>
<rect x="36" y="48" width="81" height="5" rx="2.5" fill="#202A45"/>
<rect x="122" y="48" width="21" height="5" rx="2.5" fill="#202A45"/>
<rect x="36" y="66" width="96" height="5" rx="2.5" fill="#0F4BBE"/>
<rect x="36" y="83" width="20" height="6" rx="3" fill="#202A45"/>
<rect x="8" y="101" width="10" height="6" rx="3" fill="#0F4BBE"/>
<rect x="8" y="119" width="44" height="5" rx="2.5" fill="#202A45"/>
<rect x="8" y="137" width="124" height="5" rx="2.5" fill="#0F4BBE"/>
<rect x="26" y="155" width="59" height="5" rx="2.5" fill="#202A45"/>
<rect x="8" y="173" width="124" height="5" rx="2.5" fill="#0F4BBE"/>
<rect x="26" y="190" width="78" height="6" rx="3" fill="#202A45"/>
<rect x="111" y="190" width="34" height="6" rx="3" fill="#202A45"/>
<rect x="8" y="208" width="44" height="6" rx="3" fill="#0F4BBE"/>
<rect x="26" y="226" width="37" height="5" rx="2.5" fill="#202A45"/>
<rect x="70" y="226" width="37" height="5" rx="2.5" fill="#202A45"/>
<rect x="8" y="244" width="55" height="5" rx="2.5" fill="#0F4BBE"/>
<rect x="8" y="262" width="22" height="5" rx="2.5" fill="#202A45"/>
<rect x="36" y="262" width="21" height="5" rx="2.5" fill="#202A45"/>
<rect x="63" y="262" width="22" height="5" rx="2.5" fill="#202A45"/>
<rect x="8" y="280" width="66" height="5" rx="2.5" fill="#0F4BBE"/>
</svg>
