<svg width="523" height="532" viewBox="0 0 523 532" fill="none" xmlns="http://www.w3.org/2000/svg">
<rect width="523" height="523" rx="18" fill="white"/>
<path d="M273.899 291.636H311.593V417.398C311.593 429.023 308.98 439.121 303.754 447.693C298.588 456.265 291.396 462.87 282.178 467.509C272.96 472.147 262.245 474.466 250.033 474.466C239.171 474.466 229.308 472.558 220.442 468.741C211.635 464.866 204.648 458.995 199.482 451.128C194.315 443.202 191.761 433.25 191.82 421.273H229.777C229.895 426.028 230.863 430.109 232.683 433.514C234.562 436.861 237.116 439.444 240.345 441.264C243.633 443.026 247.508 443.906 251.97 443.906C256.667 443.906 260.63 442.908 263.86 440.912C267.147 438.857 269.643 435.863 271.345 431.929C273.048 427.995 273.899 423.152 273.899 417.398V291.636ZM436.005 343.509C435.3 336.404 432.277 330.885 426.934 326.952C421.591 323.018 414.34 321.051 405.181 321.051C398.957 321.051 393.703 321.932 389.417 323.693C385.131 325.396 381.843 327.774 379.553 330.827C377.322 333.88 376.206 337.344 376.206 341.219C376.089 344.448 376.764 347.266 378.232 349.673C379.759 352.08 381.843 354.165 384.485 355.926C387.127 357.629 390.18 359.126 393.644 360.418C397.108 361.651 400.807 362.707 404.741 363.588L420.945 367.463C428.812 369.224 436.034 371.573 442.61 374.509C449.186 377.444 454.881 381.055 459.695 385.341C464.509 389.627 468.238 394.676 470.88 400.489C473.58 406.301 474.96 412.965 475.019 420.48C474.96 431.518 472.142 441.088 466.564 449.19C461.045 457.234 453.061 463.487 442.61 467.949C432.218 472.352 419.683 474.554 405.005 474.554C390.444 474.554 377.762 472.323 366.959 467.861C356.215 463.399 347.819 456.794 341.772 448.045C335.783 439.239 332.642 428.348 332.348 415.372H369.249C369.66 421.42 371.392 426.469 374.445 430.52C377.557 434.512 381.696 437.536 386.863 439.591C392.088 441.587 397.989 442.585 404.564 442.585C411.023 442.585 416.63 441.646 421.385 439.767C426.2 437.888 429.928 435.276 432.57 431.929C435.212 428.582 436.533 424.737 436.533 420.392C436.533 416.341 435.33 412.936 432.922 410.176C430.574 407.417 427.11 405.068 422.53 403.131C418.009 401.193 412.461 399.432 405.885 397.847L386.246 392.915C371.04 389.216 359.033 383.433 350.226 375.565C341.419 367.698 337.045 357.1 337.104 343.773C337.045 332.852 339.952 323.312 345.823 315.151C351.753 306.99 359.884 300.619 370.218 296.04C380.551 291.46 392.294 289.17 405.445 289.17C418.831 289.17 430.515 291.46 440.496 296.04C450.536 300.619 458.345 306.99 463.922 315.151C469.5 323.312 472.377 332.764 472.553 343.509H436.005Z" fill="#202A45"/>
</svg>
