{
    "asset" : {
        "generator" : "Khronos glTF Blender I/O v1.8.19",
        "version" : "2.0"
    },
    "scene" : 0,
    "scenes" : [
        {
            "name" : "Scene",
            "nodes" : [
                0,
                1,
                2,
                3
            ]
        }
    ],
    "nodes" : [
        {
            "mesh" : 0,
            "name" : "Curve",
            "scale" : [
                24.753936767578125,
                24.753936767578125,
                24.753936767578125
            ]
        },
        {
            "mesh" : 1,
            "name" : "Curve.001",
            "scale" : [
                24.753936767578125,
                24.753936767578125,
                24.753936767578125
            ]
        },
        {
            "mesh" : 2,
            "name" : "Curve.003",
            "scale" : [
                24.753936767578125,
                24.753936767578125,
                24.753936767578125
            ]
        },
        {
            "mesh" : 3,
            "name" : "Curve.004",
            "scale" : [
                24.753936767578125,
                24.753936767578125,
                24.753936767578125
            ]
        }
    ],
    "materials" : [
        {
            "doubleSided" : true,
            "name" : "SVGMat.002",
            "pbrMetallicRoughness" : {
                "baseColorFactor" : [
                    0,
                    0,
                    0,
                    1
                ],
                "metallicFactor" : 0,
                "roughnessFactor" : 0.4000000059604645
            }
        }
    ],
    "meshes" : [
        {
            "name" : "Curve.003",
            "primitives" : [
                {
                    "attributes" : {
                        "POSITION" : 0,
                        "NORMAL" : 1,
                        "TEXCOORD_0" : 2
                    },
                    "indices" : 3,
                    "material" : 0
                }
            ]
        },
        {
            "name" : "Curve.004",
            "primitives" : [
                {
                    "attributes" : {
                        "POSITION" : 4,
                        "NORMAL" : 5,
                        "TEXCOORD_0" : 6
                    },
                    "indices" : 7,
                    "material" : 0
                }
            ]
        },
        {
            "name" : "Curve.005",
            "primitives" : [
                {
                    "attributes" : {
                        "POSITION" : 8,
                        "NORMAL" : 9,
                        "TEXCOORD_0" : 10
                    },
                    "indices" : 11,
                    "material" : 0
                }
            ]
        },
        {
            "name" : "Curve.006",
            "primitives" : [
                {
                    "attributes" : {
                        "POSITION" : 12,
                        "NORMAL" : 13,
                        "TEXCOORD_0" : 14
                    },
                    "indices" : 15,
                    "material" : 0
                }
            ]
        }
    ],
    "accessors" : [
        {
            "bufferView" : 0,
            "componentType" : 5126,
            "count" : 564,
            "max" : [
                0.1341852992773056,
                0.025910509750247,
                0
            ],
            "min" : [
                0.020410727709531784,
                0,
                -0.027328014373779297
            ],
            "type" : "VEC3"
        },
        {
            "bufferView" : 1,
            "componentType" : 5126,
            "count" : 564,
            "type" : "VEC3"
        },
        {
            "bufferView" : 2,
            "componentType" : 5126,
            "count" : 564,
            "type" : "VEC2"
        },
        {
            "bufferView" : 3,
            "componentType" : 5123,
            "count" : 828,
            "type" : "SCALAR"
        },
        {
            "bufferView" : 4,
            "componentType" : 5126,
            "count" : 568,
            "max" : [
                0.12073343992233276,
                0.022967059165239334,
                -0.030251771211624146
            ],
            "min" : [
                0.033859893679618835,
                0.0029434561729431152,
                -0.056724172085523605
            ],
            "type" : "VEC3"
        },
        {
            "bufferView" : 5,
            "componentType" : 5126,
            "count" : 568,
            "type" : "VEC3"
        },
        {
            "bufferView" : 6,
            "componentType" : 5126,
            "count" : 568,
            "type" : "VEC2"
        },
        {
            "bufferView" : 7,
            "componentType" : 5123,
            "count" : 828,
            "type" : "SCALAR"
        },
        {
            "bufferView" : 8,
            "componentType" : 5126,
            "count" : 704,
            "max" : [
                0.14910386502742767,
                0.025910509750247,
                -0.030242815613746643
            ],
            "min" : [
                0.005486512556672096,
                0,
                -0.11132954061031342
            ],
            "type" : "VEC3"
        },
        {
            "bufferView" : 9,
            "componentType" : 5126,
            "count" : 704,
            "type" : "VEC3"
        },
        {
            "bufferView" : 10,
            "componentType" : 5126,
            "count" : 704,
            "type" : "VEC2"
        },
        {
            "bufferView" : 11,
            "componentType" : 5123,
            "count" : 1044,
            "type" : "SCALAR"
        },
        {
            "bufferView" : 12,
            "componentType" : 5126,
            "count" : 772,
            "max" : [
                0.15458473563194275,
                0.025910509750247,
                -0.06275425851345062
            ],
            "min" : [
                0,
                0,
                -0.15361247956752777
            ],
            "type" : "VEC3"
        },
        {
            "bufferView" : 13,
            "componentType" : 5126,
            "count" : 772,
            "type" : "VEC3"
        },
        {
            "bufferView" : 14,
            "componentType" : 5126,
            "count" : 772,
            "type" : "VEC2"
        },
        {
            "bufferView" : 15,
            "componentType" : 5123,
            "count" : 1116,
            "type" : "SCALAR"
        }
    ],
    "bufferViews" : [
        {
            "buffer" : 0,
            "byteLength" : 6768,
            "byteOffset" : 0
        },
        {
            "buffer" : 0,
            "byteLength" : 6768,
            "byteOffset" : 6768
        },
        {
            "buffer" : 0,
            "byteLength" : 4512,
            "byteOffset" : 13536
        },
        {
            "buffer" : 0,
            "byteLength" : 1656,
            "byteOffset" : 18048
        },
        {
            "buffer" : 0,
            "byteLength" : 6816,
            "byteOffset" : 19704
        },
        {
            "buffer" : 0,
            "byteLength" : 6816,
            "byteOffset" : 26520
        },
        {
            "buffer" : 0,
            "byteLength" : 4544,
            "byteOffset" : 33336
        },
        {
            "buffer" : 0,
            "byteLength" : 1656,
            "byteOffset" : 37880
        },
        {
            "buffer" : 0,
            "byteLength" : 8448,
            "byteOffset" : 39536
        },
        {
            "buffer" : 0,
            "byteLength" : 8448,
            "byteOffset" : 47984
        },
        {
            "buffer" : 0,
            "byteLength" : 5632,
            "byteOffset" : 56432
        },
        {
            "buffer" : 0,
            "byteLength" : 2088,
            "byteOffset" : 62064
        },
        {
            "buffer" : 0,
            "byteLength" : 9264,
            "byteOffset" : 64152
        },
        {
            "buffer" : 0,
            "byteLength" : 9264,
            "byteOffset" : 73416
        },
        {
            "buffer" : 0,
            "byteLength" : 6176,
            "byteOffset" : 82680
        },
        {
            "buffer" : 0,
            "byteLength" : 2232,
            "byteOffset" : 88856
        }
    ],
    "buffers" : [
        {
            "byteLength" : 91088,
            "uri" : "data:application/octet-stream;base64,"
        }
    ]
}
