{
    "asset" : {
        "generator" : "Khronos glTF Blender I/O v1.8.19",
        "version" : "2.0"
    },
    "scene" : 0,
    "scenes" : [
        {
            "name" : "Scene",
            "nodes" : [
                0
            ]
        }
    ],
    "nodes" : [
        {
            "mesh" : 0,
            "name" : "Curve",
            "scale" : [
                137.810791015625,
                137.810791015625,
                137.810791015625
            ]
        }
    ],
    "materials" : [
        {
            "doubleSided" : true,
            "name" : "SVGMat.004",
            "pbrMetallicRoughness" : {
                "baseColorFactor" : [
                    0,
                    0,
                    0,
                    1
                ],
                "metallicFactor" : 0,
                "roughnessFactor" : 0.4000000059604645
            }
        }
    ],
    "meshes" : [
        {
            "name" : "Curve.007",
            "primitives" : [
                {
                    "attributes" : {
                        "POSITION" : 0,
                        "NORMAL" : 1,
                        "TEXCOORD_0" : 2
                    },
                    "indices" : 3,
                    "material" : 0
                }
            ]
        }
    ],
    "accessors" : [
        {
            "bufferView" : 0,
            "componentType" : 5126,
            "count" : 1199,
            "max" : [
                0.01966564543545246,
                0.004779977723956108,
                -2.820044755935669e-06
            ],
            "min" : [
                1.128949224948883e-05,
                0,
                -0.028276093304157257
            ],
            "type" : "VEC3"
        },
        {
            "bufferView" : 1,
            "componentType" : 5126,
            "count" : 1199,
            "type" : "VEC3"
        },
        {
            "bufferView" : 2,
            "componentType" : 5126,
            "count" : 1199,
            "type" : "VEC2"
        },
        {
            "bufferView" : 3,
            "componentType" : 5123,
            "count" : 1944,
            "type" : "SCALAR"
        }
    ],
    "bufferViews" : [
        {
            "buffer" : 0,
            "byteLength" : 14388,
            "byteOffset" : 0
        },
        {
            "buffer" : 0,
            "byteLength" : 14388,
            "byteOffset" : 14388
        },
        {
            "buffer" : 0,
            "byteLength" : 9592,
            "byteOffset" : 28776
        },
        {
            "buffer" : 0,
            "byteLength" : 3888,
            "byteOffset" : 38368
        }
    ],
    "buffers" : [
        {
            "byteLength" : 42256,
            "uri" : "data:application/octet-stream;base64,"
        }
    ]
}
