{
    "asset" : {
        "generator" : "Khronos glTF Blender I/O v1.8.19",
        "version" : "2.0"
    },
    "scene" : 0,
    "scenes" : [
        {
            "name" : "Scene",
            "nodes" : [
                0
            ]
        }
    ],
    "nodes" : [
        {
            "mesh" : 0,
            "name" : "Curve.002",
            "scale" : [
                32.709136962890625,
                32.709136962890625,
                32.709136962890625
            ]
        }
    ],
    "materials" : [
        {
            "doubleSided" : true,
            "name" : "SVGMat.001",
            "pbrMetallicRoughness" : {
                "baseColorFactor" : [
                    0,
                    0,
                    0,
                    1
                ],
                "metallicFactor" : 0,
                "roughnessFactor" : 0.4000000059604645
            }
        }
    ],
    "meshes" : [
        {
            "name" : "Curve.002",
            "primitives" : [
                {
                    "attributes" : {
                        "POSITION" : 0,
                        "NORMAL" : 1,
                        "TEXCOORD_0" : 2
                    },
                    "indices" : 3,
                    "material" : 0
                }
            ]
        }
    ],
    "accessors" : [
        {
            "bufferView" : 0,
            "componentType" : 5126,
            "count" : 12157,
            "max" : [
                0.11641429364681244,
                0.019504424184560776,
                0
            ],
            "min" : [
                0.00014675855345558375,
                0,
                -0.11572837084531784
            ],
            "type" : "VEC3"
        },
        {
            "bufferView" : 1,
            "componentType" : 5126,
            "count" : 12157,
            "type" : "VEC3"
        },
        {
            "bufferView" : 2,
            "componentType" : 5126,
            "count" : 12157,
            "type" : "VEC2"
        },
        {
            "bufferView" : 3,
            "componentType" : 5123,
            "count" : 19596,
            "type" : "SCALAR"
        }
    ],
    "bufferViews" : [
        {
            "buffer" : 0,
            "byteLength" : 145884,
            "byteOffset" : 0
        },
        {
            "buffer" : 0,
            "byteLength" : 145884,
            "byteOffset" : 145884
        },
        {
            "buffer" : 0,
            "byteLength" : 97256,
            "byteOffset" : 291768
        },
        {
            "buffer" : 0,
            "byteLength" : 39192,
            "byteOffset" : 389024
        }
    ],
    "buffers" : [
        {
            "byteLength" : 428216,
            "uri" : "data:application/octet-stream;base64,"
        }
    ]
}
