<svg width="520" height="1396" viewBox="0 0 520 1396" fill="none" xmlns="http://www.w3.org/2000/svg">
<path d="M477.5 626.359H322.5C299.028 626.359 280 645.387 280 668.859V817.859C280 841.331 299.028 860.359 322.5 860.359H477.5C500.972 860.359 520 841.331 520 817.859V668.859C520 645.387 500.972 626.359 477.5 626.359Z" fill="#202A45"/>
<path d="M376.42 766.359H339.23L331.66 789.909C331.45 790.789 330.64 791.399 329.73 791.359H310.89C309.82 791.359 309.44 790.769 309.76 789.589L341.96 697.239C342.28 696.269 342.6 695.329 342.93 694.089C343.35 691.939 343.57 689.759 343.57 687.569C343.49 687.029 343.87 686.519 344.42 686.439C344.51 686.429 344.61 686.429 344.7 686.439H370.3C371.05 686.439 371.48 686.709 371.59 687.249L408.14 789.749C408.46 790.819 408.14 791.359 407.17 791.359H386.24C385.5 791.439 384.81 790.959 384.63 790.229L376.42 766.359ZM345.02 746.499H370.46C369.82 744.349 369.06 741.939 368.21 739.249C367.35 736.569 366.44 733.699 365.47 730.639C364.5 727.579 363.54 724.519 362.57 721.459C361.6 718.399 360.72 715.449 359.91 712.599C359.11 709.759 358.38 707.149 357.74 704.789H357.58C356.67 709.139 355.55 713.439 354.2 717.669C352.7 722.499 351.17 727.439 349.61 732.479C348.05 737.529 346.52 742.199 345.02 746.489V746.499Z" fill="white"/>
<path d="M467.38 757.189H435.66C436.05 760.329 437.09 763.349 438.72 766.059C440.52 768.739 443.07 770.839 446.05 772.099C450.09 773.849 454.45 774.699 458.85 774.609C462.34 774.539 465.81 774.159 469.23 773.469C472.29 773.059 475.29 772.279 478.16 771.139C478.7 770.709 478.97 770.979 478.97 771.949V787.239C479 787.659 478.91 788.069 478.73 788.449C478.55 788.739 478.3 788.989 478.01 789.169C474.83 790.579 471.47 791.579 468.04 792.139C463.37 793.019 458.62 793.419 453.87 793.349C446.25 793.349 439.86 792.169 434.71 789.809C429.84 787.669 425.54 784.409 422.15 780.309C418.98 776.449 416.63 771.979 415.23 767.189C413.84 762.459 413.14 757.549 413.14 752.619C413.13 747.229 413.97 741.879 415.64 736.759C417.25 731.769 419.79 727.119 423.13 723.069C426.42 719.069 430.54 715.829 435.21 713.569C439.93 711.259 445.51 710.439 451.95 710.439C457.29 710.299 462.6 711.349 467.49 713.499C471.6 715.249 475.22 717.989 478.04 721.459C480.68 724.859 482.69 728.709 484 732.809C485.27 736.769 485.92 740.889 485.93 745.049C485.93 747.409 485.85 749.559 485.69 751.489C485.53 753.419 485.4 754.819 485.29 755.679C485.2 756.409 484.58 756.969 483.84 756.969C483.2 756.969 482.1 757.049 480.54 757.209C478.98 757.369 477.05 757.479 474.74 757.529C472.43 757.589 469.99 757.189 467.41 757.189H467.38ZM435.66 742.519H456.75C459.33 742.519 461.23 742.489 462.47 742.439C463.3 742.359 464.09 742.089 464.81 741.669V740.699C464.78 739.439 464.56 738.189 464.17 736.999C462.38 731.349 457.05 727.599 451.13 727.819C445.59 727.489 440.38 730.449 437.85 735.389C436.75 737.639 436.01 740.039 435.68 742.519H435.66Z" fill="white"/>
<path d="M197.5 0H42.5C19.0279 0 0 19.0279 0 42.5V191.5C0 214.972 19.0279 234 42.5 234H197.5C220.972 234 240 214.972 240 191.5V42.5C240 19.0279 220.972 0 197.5 0Z" fill="#202A45"/>
<path d="M116.3 140.43H79.1101L71.5401 163.94C71.3301 164.82 70.5201 165.43 69.6101 165.39H50.7701C49.7001 165.39 49.3201 164.8 49.6401 163.62L81.8401 70.8799C82.1601 69.9099 82.4801 68.8099 82.8101 67.5799C83.2301 65.4299 83.4501 63.2499 83.4501 61.0599C83.3701 60.5199 83.7501 60.0099 84.3001 59.9299C84.3901 59.9199 84.4901 59.9199 84.5801 59.9299H110.18C110.93 59.9299 111.36 60.1999 111.47 60.7399L148.02 163.78C148.34 164.85 148.02 165.39 147.05 165.39H126.12C125.38 165.47 124.69 164.99 124.51 164.26L116.3 140.43ZM84.9001 120.14H110.34C109.7 117.99 108.94 115.58 108.09 112.89C107.23 110.21 106.32 107.34 105.35 104.28C104.38 101.22 103.42 98.1599 102.45 95.0999C101.48 92.0399 100.6 89.0899 99.7901 86.2499C98.9801 83.4099 98.2601 80.7999 97.6201 78.4399H97.4601C96.5501 82.7899 95.4301 87.0899 94.0801 91.3199C92.5801 96.1499 91.0501 101.09 89.4901 106.13C87.9301 111.18 86.4001 115.85 84.9001 120.14Z" fill="white"/>
<path d="M169.75 76.9898C166.43 77.1198 163.21 75.8398 160.9 73.4498C158.6 70.9598 157.38 67.6598 157.52 64.2698C157.4 60.9098 158.72 57.6598 161.14 55.3298C163.54 53.0298 166.75 51.7798 170.08 51.8698C173.94 51.8698 176.98 53.0198 179.18 55.3298C181.42 57.7498 182.61 60.9698 182.48 64.2698C182.62 67.6698 181.37 70.9798 179.02 73.4498C176.56 75.8698 173.21 77.1598 169.76 76.9898H169.75ZM158.64 163.77V86.8098C158.64 85.8398 159.07 85.3598 159.93 85.3598H179.73C180.59 85.3598 181.02 85.8398 181.02 86.8098V163.77C181.02 164.84 180.59 165.38 179.73 165.38H160.09C159.12 165.38 158.64 164.84 158.64 163.77Z" fill="white"/>
<path d="M197.5 803H42.5C19.0279 803 0 822.028 0 845.5V994.5C0 1017.97 19.0279 1037 42.5 1037H197.5C220.972 1037 240 1017.97 240 994.5V845.5C240 822.028 220.972 803 197.5 803Z" fill="#202A45"/>
<path d="M116.3 943.429H79.1101L71.5401 966.939C71.3301 967.819 70.5201 968.429 69.6101 968.389H50.7701C49.7001 968.389 49.3201 967.799 49.6401 966.619L81.8401 873.879C82.1601 872.909 82.4801 871.809 82.8101 870.579C83.2301 868.429 83.4501 866.249 83.4501 864.059C83.3701 863.519 83.7501 863.009 84.3001 862.929C84.3901 862.919 84.4901 862.919 84.5801 862.929H110.18C110.93 862.929 111.36 863.199 111.47 863.739L148.02 966.779C148.34 967.849 148.02 968.389 147.05 968.389H126.12C125.38 968.469 124.69 967.989 124.51 967.259L116.3 943.429ZM84.9001 923.139H110.34C109.7 920.989 108.94 918.579 108.09 915.889C107.23 913.209 106.32 910.339 105.35 907.279C104.38 904.219 103.42 901.159 102.45 898.099C101.48 895.039 100.6 892.089 99.7901 889.249C98.9801 886.409 98.2601 883.799 97.6201 881.439H97.4601C96.5501 885.789 95.4301 890.089 94.0801 894.319C92.5801 899.149 91.0501 904.089 89.4901 909.129C87.9301 914.179 86.4001 918.849 84.9001 923.139Z" fill="white"/>
<path d="M169.75 879.99C166.43 880.12 163.21 878.84 160.9 876.45C158.6 873.96 157.38 870.66 157.52 867.27C157.4 863.91 158.72 860.66 161.14 858.33C163.54 856.03 166.75 854.78 170.08 854.87C173.94 854.87 176.98 856.02 179.18 858.33C181.42 860.75 182.61 863.97 182.48 867.27C182.62 870.67 181.37 873.98 179.02 876.45C176.56 878.87 173.21 880.16 169.76 879.99H169.75ZM158.64 966.77V889.81C158.64 888.84 159.07 888.36 159.93 888.36H179.73C180.59 888.36 181.02 888.84 181.02 889.81V966.77C181.02 967.84 180.59 968.38 179.73 968.38H160.09C159.12 968.38 158.64 967.84 158.64 966.77Z" fill="white"/>
<path d="M200.39 267.68H45.3896C21.9175 267.68 2.88965 286.708 2.88965 310.18V459.18C2.88965 482.652 21.9175 501.68 45.3896 501.68H200.39C223.862 501.68 242.89 482.652 242.89 459.18V310.18C242.89 286.708 223.862 267.68 200.39 267.68Z" fill="#202A45"/>
<path d="M90.0501 328.9V431.46C90.0501 432.53 89.5701 433.07 88.6001 433.07H69.1201C68.2601 433.07 67.8301 432.53 67.8301 431.46V328.9C67.8301 328.04 68.3101 327.61 69.2801 327.61H88.7601C89.3801 327.52 89.9601 327.95 90.0501 328.58C90.0701 328.69 90.0701 328.79 90.0501 328.9Z" fill="white"/>
<path d="M147.69 434.67C140.28 434.78 132.94 433.24 126.2 430.16C119.92 427.25 114.67 422.51 111.15 416.56C107.5 410.5 105.67 402.9 105.68 393.78C105.62 386.39 107.51 379.12 111.15 372.69C114.91 366.14 120.43 360.79 127.09 357.23C134.07 353.37 142.49 351.43 152.37 351.43C152.91 351.43 153.6 351.46 154.46 351.51C155.32 351.57 156.34 351.65 157.52 351.75V320.03C157.52 319.28 157.84 318.9 158.49 318.9H178.78C179.25 318.83 179.68 319.16 179.75 319.62C179.76 319.7 179.76 319.78 179.75 319.86V415.01C179.75 416.84 179.83 418.82 179.99 420.97C180.15 423.12 180.29 425.05 180.39 426.77C180.43 427.45 180.05 428.09 179.42 428.38C174.19 430.56 168.74 432.18 163.16 433.21C158.06 434.15 152.89 434.64 147.7 434.66L147.69 434.67ZM157.51 414.71V370.76C156.64 370.52 155.75 370.36 154.85 370.28C153.75 370.17 152.65 370.12 151.55 370.12C147.64 370.08 143.78 370.96 140.28 372.7C136.87 374.4 133.96 376.95 131.83 380.11C129.63 383.33 128.53 387.57 128.53 392.83C128.45 396.34 129.02 399.83 130.22 403.13C131.19 405.79 132.73 408.21 134.73 410.21C136.64 412.06 138.96 413.44 141.49 414.24C144.17 415.11 146.97 415.54 149.78 415.53C151.28 415.53 152.68 415.48 153.97 415.37C155.17 415.28 156.36 415.06 157.51 414.73V414.71Z" fill="white"/>
<path d="M200.39 1070.68H45.3896C21.9175 1070.68 2.88965 1089.71 2.88965 1113.18V1262.18C2.88965 1285.65 21.9175 1304.68 45.3896 1304.68H200.39C223.862 1304.68 242.89 1285.65 242.89 1262.18V1113.18C242.89 1089.71 223.862 1070.68 200.39 1070.68Z" fill="#202A45"/>
<path d="M90.0501 1131.9V1234.46C90.0501 1235.53 89.5701 1236.07 88.6001 1236.07H69.1201C68.2601 1236.07 67.8301 1235.53 67.8301 1234.46V1131.9C67.8301 1131.04 68.3101 1130.61 69.2801 1130.61H88.7601C89.3801 1130.52 89.9601 1130.95 90.0501 1131.58C90.0701 1131.69 90.0701 1131.79 90.0501 1131.9Z" fill="white"/>
<path d="M147.69 1237.67C140.28 1237.78 132.94 1236.24 126.2 1233.16C119.92 1230.25 114.67 1225.51 111.15 1219.56C107.5 1213.5 105.67 1205.9 105.68 1196.78C105.62 1189.39 107.51 1182.12 111.15 1175.69C114.91 1169.14 120.43 1163.79 127.09 1160.23C134.07 1156.37 142.49 1154.43 152.37 1154.43C152.91 1154.43 153.6 1154.46 154.46 1154.51C155.32 1154.57 156.34 1154.65 157.52 1154.75V1123.03C157.52 1122.28 157.84 1121.9 158.49 1121.9H178.78C179.25 1121.83 179.68 1122.16 179.75 1122.62C179.76 1122.7 179.76 1122.78 179.75 1122.86V1218.01C179.75 1219.84 179.83 1221.82 179.99 1223.97C180.15 1226.12 180.29 1228.05 180.39 1229.77C180.43 1230.45 180.05 1231.09 179.42 1231.38C174.19 1233.56 168.74 1235.18 163.16 1236.21C158.06 1237.15 152.89 1237.64 147.7 1237.66L147.69 1237.67ZM157.51 1217.71V1173.76C156.64 1173.52 155.75 1173.36 154.85 1173.28C153.75 1173.17 152.65 1173.12 151.55 1173.12C147.64 1173.08 143.78 1173.96 140.28 1175.7C136.87 1177.4 133.96 1179.95 131.83 1183.11C129.63 1186.33 128.53 1190.57 128.53 1195.83C128.45 1199.34 129.02 1202.83 130.22 1206.13C131.19 1208.79 132.73 1211.21 134.73 1213.21C136.64 1215.06 138.96 1216.44 141.49 1217.24C144.17 1218.11 146.97 1218.54 149.78 1218.53C151.28 1218.53 152.68 1218.48 153.97 1218.37C155.17 1218.28 156.36 1218.06 157.51 1217.73V1217.71Z" fill="white"/>
<path d="M198.5 535.359H43.5C20.0279 535.359 1 554.387 1 577.859V726.859C1 750.331 20.0279 769.359 43.5 769.359H198.5C221.972 769.359 241 750.331 241 726.859V577.859C241 554.387 221.972 535.359 198.5 535.359Z" fill="#202A45"/>
<path d="M127.04 700.739H63.6103C62.5403 700.739 62.0003 700.149 62.0003 698.969V596.729C61.9003 596.029 62.3903 595.379 63.0903 595.279C63.2103 595.259 63.3303 595.259 63.4503 595.279H83.0903C83.6403 595.199 84.1403 595.579 84.2203 596.129C84.2303 596.219 84.2303 596.319 84.2203 596.409V680.449H130.43C131.4 680.449 131.77 680.929 131.56 681.899L128.66 699.289C128.65 699.769 128.41 700.219 128.02 700.499C127.72 700.659 127.39 700.739 127.05 700.739H127.04Z" fill="white"/>
<path d="M142.98 620.719H160.53C161.51 620.719 162.36 621.389 162.62 622.329C163 623.039 163.27 623.799 163.43 624.579C163.65 625.619 163.82 626.659 163.91 627.719C164.02 628.849 164.07 630.049 164.07 631.339C167.08 627.839 170.71 624.919 174.78 622.729C179.35 620.259 184.48 619.009 189.67 619.109C190.37 619.009 191.02 619.499 191.12 620.199C191.14 620.319 191.14 620.439 191.12 620.559V640.039C191.12 640.789 190.58 641.169 189.51 641.169C183.02 640.769 176.54 641.929 170.59 644.549C168.57 645.419 166.74 646.679 165.2 648.249V699.289C165.2 700.259 164.77 700.739 163.91 700.739H144.43C143.65 700.849 142.93 700.309 142.82 699.529C142.8 699.399 142.8 699.259 142.82 699.129V643.749C142.82 641.389 142.79 638.889 142.74 636.259C142.68 633.629 142.6 631.029 142.5 628.449C142.43 626.239 142.21 624.029 141.86 621.849C141.73 621.359 142.03 620.849 142.52 620.719C142.67 620.679 142.83 620.679 142.98 620.719Z" fill="white"/>
<path d="M477.5 91H322.5C299.028 91 280 110.028 280 133.5V282.5C280 305.972 299.028 325 322.5 325H477.5C500.972 325 520 305.972 520 282.5V133.5C520 110.028 500.972 91 477.5 91Z" fill="#202A45"/>
<path d="M334.04 255.1V152.22C334.04 151.47 334.36 151.09 335.01 151.09C336.73 151.09 338.29 151.06 340.65 151.01C343.01 150.96 345.56 150.9 348.3 150.85C351.04 150.8 353.94 150.74 356.99 150.69C360.05 150.64 363.08 150.61 366.09 150.61C374.25 150.61 381.12 151.63 386.7 153.67C391.74 155.37 396.33 158.18 400.14 161.88C403.37 165.09 405.87 168.96 407.47 173.23C408.98 177.38 409.74 181.77 409.72 186.19C409.72 194.78 407.73 201.86 403.76 207.44C399.76 213.04 394.14 217.29 387.66 219.6C380.9 222.12 373.38 222.98 365.12 222.98C362.76 222.98 361.09 222.95 360.13 222.9C359.16 222.85 357.72 222.82 355.78 222.82V254.94C355.88 255.64 355.39 256.29 354.69 256.39C354.57 256.41 354.45 256.41 354.33 256.39H335.16C334.41 256.39 334.03 255.96 334.03 255.1H334.04ZM355.78 170.41V203.96C357.17 204.07 358.46 204.12 359.64 204.12H364.95C368.86 204.11 372.74 203.49 376.46 202.28C379.65 201.33 382.5 199.49 384.67 196.97C386.76 194.5 387.81 191.07 387.81 186.67C387.89 183.56 387.08 180.48 385.48 177.81C383.79 175.23 381.34 173.24 378.48 172.09C374.74 170.64 370.74 169.95 366.73 170.08C364.15 170.08 361.87 170.11 359.89 170.16C357.9 170.22 356.53 170.3 355.78 170.4V170.41Z" fill="white"/>
<path d="M471.97 197.86C468.94 196.31 465.72 195.17 462.39 194.48C458.72 193.64 454.97 193.21 451.2 193.19C449.16 193.13 447.13 193.38 445.16 193.91C443.91 194.19 442.8 194.9 442.02 195.92C441.5 196.74 441.22 197.69 441.22 198.66C441.25 199.6 441.59 200.51 442.19 201.24C443.13 202.34 444.28 203.24 445.57 203.9C447.87 205.14 450.23 206.24 452.65 207.2C458.05 209.01 463.22 211.47 468.03 214.53C471.31 216.6 474.02 219.45 475.92 222.82C477.52 226.02 478.32 229.55 478.25 233.12C478.35 237.84 477 242.47 474.39 246.4C471.59 250.39 467.71 253.49 463.2 255.34C458.31 257.49 452.28 258.56 445.09 258.56C440.52 258.61 435.96 258.17 431.49 257.27C427.96 256.62 424.53 255.54 421.27 254.05C420.55 253.68 420.11 252.93 420.14 252.12V234.73C420.1 234.38 420.26 234.04 420.54 233.84C420.82 233.68 421.18 233.71 421.43 233.92C425.28 236.19 429.46 237.85 433.83 238.83C437.68 239.79 441.62 240.31 445.58 240.36C449.34 240.36 452.1 239.88 453.87 238.91C455.5 238.16 456.55 236.52 456.53 234.72C456.53 233.33 455.72 231.98 454.12 230.7C452.51 229.41 449.24 227.86 444.3 226.03C439.24 224.27 434.45 221.83 430.05 218.79C426.9 216.6 424.31 213.71 422.48 210.34C420.9 207.17 420.1 203.66 420.15 200.12C420.15 195.86 421.31 191.68 423.53 188.05C426.06 184.05 429.7 180.86 434 178.87C438.72 176.51 444.63 175.33 451.71 175.33C455.86 175.3 460 175.59 464.11 176.22C467.08 176.6 469.99 177.38 472.74 178.55C473.18 178.68 473.54 179.01 473.71 179.44C473.82 179.83 473.87 180.24 473.87 180.65V196.91C473.89 197.3 473.71 197.66 473.39 197.88C472.95 198.1 472.44 198.1 472 197.88L471.97 197.86Z" fill="white"/>
<path d="M477.5 894H322.5C299.028 894 280 913.028 280 936.5V1085.5C280 1108.97 299.028 1128 322.5 1128H477.5C500.972 1128 520 1108.97 520 1085.5V936.5C520 913.028 500.972 894 477.5 894Z" fill="#202A45"/>
<path d="M334.04 1058.1V955.219C334.04 954.469 334.36 954.089 335.01 954.089C336.73 954.089 338.29 954.059 340.65 954.009C343.01 953.959 345.56 953.899 348.3 953.849C351.04 953.799 353.94 953.739 356.99 953.689C360.05 953.639 363.08 953.609 366.09 953.609C374.25 953.609 381.12 954.629 386.7 956.669C391.74 958.369 396.33 961.179 400.14 964.879C403.37 968.089 405.87 971.959 407.47 976.229C408.98 980.379 409.74 984.769 409.72 989.189C409.72 997.779 407.73 1004.86 403.76 1010.44C399.76 1016.04 394.14 1020.29 387.66 1022.6C380.9 1025.12 373.38 1025.98 365.12 1025.98C362.76 1025.98 361.09 1025.95 360.13 1025.9C359.16 1025.85 357.72 1025.82 355.78 1025.82V1057.94C355.88 1058.64 355.39 1059.29 354.69 1059.39C354.57 1059.41 354.45 1059.41 354.33 1059.39H335.16C334.41 1059.39 334.03 1058.96 334.03 1058.1H334.04ZM355.78 973.409V1006.96C357.17 1007.07 358.46 1007.12 359.64 1007.12H364.95C368.86 1007.11 372.74 1006.49 376.46 1005.28C379.65 1004.33 382.5 1002.49 384.67 999.969C386.76 997.499 387.81 994.069 387.81 989.669C387.89 986.559 387.08 983.479 385.48 980.809C383.79 978.229 381.34 976.239 378.48 975.089C374.74 973.639 370.74 972.949 366.73 973.079C364.15 973.079 361.87 973.109 359.89 973.159C357.9 973.219 356.53 973.299 355.78 973.399V973.409Z" fill="white"/>
<path d="M471.97 1000.86C468.94 999.309 465.72 998.169 462.39 997.479C458.72 996.639 454.97 996.209 451.2 996.189C449.16 996.129 447.13 996.379 445.16 996.909C443.91 997.189 442.8 997.899 442.02 998.919C441.5 999.739 441.22 1000.69 441.22 1001.66C441.25 1002.6 441.59 1003.51 442.19 1004.24C443.13 1005.34 444.28 1006.24 445.57 1006.9C447.87 1008.14 450.23 1009.24 452.65 1010.2C458.05 1012.01 463.22 1014.47 468.03 1017.53C471.31 1019.6 474.02 1022.45 475.92 1025.82C477.52 1029.02 478.32 1032.55 478.25 1036.12C478.35 1040.84 477 1045.47 474.39 1049.4C471.59 1053.39 467.71 1056.49 463.2 1058.34C458.31 1060.49 452.28 1061.56 445.09 1061.56C440.52 1061.61 435.96 1061.17 431.49 1060.27C427.96 1059.62 424.53 1058.54 421.27 1057.05C420.55 1056.68 420.11 1055.93 420.14 1055.12V1037.73C420.1 1037.38 420.26 1037.04 420.54 1036.84C420.82 1036.68 421.18 1036.71 421.43 1036.92C425.28 1039.19 429.46 1040.85 433.83 1041.83C437.68 1042.79 441.62 1043.31 445.58 1043.36C449.34 1043.36 452.1 1042.88 453.87 1041.91C455.5 1041.16 456.55 1039.52 456.53 1037.72C456.53 1036.33 455.72 1034.98 454.12 1033.7C452.51 1032.41 449.24 1030.86 444.3 1029.03C439.24 1027.27 434.45 1024.83 430.05 1021.79C426.9 1019.6 424.31 1016.71 422.48 1013.34C420.9 1010.17 420.1 1006.66 420.15 1003.12C420.15 998.859 421.31 994.679 423.53 991.049C426.06 987.049 429.7 983.859 434 981.869C438.72 979.509 444.63 978.329 451.71 978.329C455.86 978.299 460 978.589 464.11 979.219C467.08 979.599 469.99 980.379 472.74 981.549C473.18 981.679 473.54 982.009 473.71 982.439C473.82 982.829 473.87 983.239 473.87 983.649V999.909C473.89 1000.3 473.71 1000.66 473.39 1000.88C472.95 1001.1 472.44 1001.1 472 1000.88L471.97 1000.86Z" fill="white"/>
<path d="M322.5 358.68H477.5C501 358.68 520 377.68 520 401.18V550.18C520 573.68 501 592.68 477.5 592.68H322.5C299 592.68 280 573.68 280 550.18V401.18C280 377.68 299 358.68 322.5 358.68Z" fill="#202A45"/>
<path d="M337 522.78V419.88C337 419.18 337.3 418.78 338 418.78C339.7 418.78 341.3 418.78 343.6 418.68C346 418.58 348.5 418.58 351.2 418.48C353.9 418.38 356.8 418.38 359.9 418.28C363 418.18 366 418.18 369 418.18C377.2 418.18 384 419.18 389.6 421.28C394.6 422.98 399.2 425.78 403 429.48C406.2 432.68 408.7 436.58 410.3 440.88C411.8 445.08 412.6 449.38 412.6 453.88C412.6 462.48 410.6 469.58 406.6 475.18C402.6 480.78 397 484.98 390.5 487.38C383.7 489.88 376.2 490.78 368 490.78C365.6 490.78 364 490.78 363 490.68C362 490.58 360.6 490.58 358.7 490.58V522.68C358.8 523.38 358.3 523.98 357.6 524.08H338.2C337.4 524.08 337 523.68 337 522.78ZM358.8 438.08V471.68C360.2 471.78 361.5 471.88 362.7 471.88H368C371.9 471.88 375.8 471.28 379.5 470.08C382.7 469.18 385.5 467.28 387.7 464.78C389.8 462.28 390.8 458.88 390.8 454.48C390.9 451.38 390.1 448.28 388.5 445.58C386.8 442.98 384.4 440.98 381.5 439.88C377.8 438.38 373.8 437.78 369.7 437.88C367.1 437.88 364.8 437.88 362.9 437.98C360.9 437.88 359.5 437.98 358.8 438.08Z" fill="white"/>
<path d="M426.6 443.88H444.1C445.1 443.88 445.9 444.58 446.2 445.48C446.5 446.28 446.7 447.08 446.8 447.98C447 448.98 447.2 450.08 447.3 451.08C447.4 452.18 447.5 453.38 447.5 454.68C450.5 451.18 454.1 448.28 458.2 446.08C462.8 443.48 468.1 442.18 473.4 442.18C474.1 442.08 474.7 442.58 474.8 443.28V463.18C474.8 463.98 474.3 464.28 473.2 464.28C469.6 464.18 465.9 464.48 462.4 465.28C459.5 465.88 456.7 466.78 454 467.98C452.1 468.88 450.3 470.08 448.9 471.68V522.68C448.9 523.68 448.5 524.08 447.6 524.08H427.9C427.1 524.18 426.4 523.68 426.3 522.88V467.08C426.3 464.68 426.3 462.18 426.2 459.58C426.1 456.98 426.1 454.38 426 451.78C426 449.48 425.8 447.28 425.6 444.98C425.5 444.48 425.8 443.98 426.3 443.88C426.3 443.78 426.5 443.78 426.6 443.88Z" fill="white"/>
<path d="M322.5 1161.68H477.5C501 1161.68 520 1180.68 520 1204.18V1353.18C520 1376.68 501 1395.68 477.5 1395.68H322.5C299 1395.68 280 1376.68 280 1353.18V1204.18C280 1180.68 299 1161.68 322.5 1161.68Z" fill="#202A45"/>
<path d="M337 1325.78V1222.88C337 1222.18 337.3 1221.78 338 1221.78C339.7 1221.78 341.3 1221.78 343.6 1221.68C346 1221.58 348.5 1221.58 351.2 1221.48C353.9 1221.38 356.8 1221.38 359.9 1221.28C363 1221.18 366 1221.18 369 1221.18C377.2 1221.18 384 1222.18 389.6 1224.28C394.6 1225.98 399.2 1228.78 403 1232.48C406.2 1235.68 408.7 1239.58 410.3 1243.88C411.8 1248.08 412.6 1252.38 412.6 1256.88C412.6 1265.48 410.6 1272.58 406.6 1278.18C402.6 1283.78 397 1287.98 390.5 1290.38C383.7 1292.88 376.2 1293.78 368 1293.78C365.6 1293.78 364 1293.78 363 1293.68C362 1293.58 360.6 1293.58 358.7 1293.58V1325.68C358.8 1326.38 358.3 1326.98 357.6 1327.08H338.2C337.4 1327.08 337 1326.68 337 1325.78ZM358.8 1241.08V1274.68C360.2 1274.78 361.5 1274.88 362.7 1274.88H368C371.9 1274.88 375.8 1274.28 379.5 1273.08C382.7 1272.18 385.5 1270.28 387.7 1267.78C389.8 1265.28 390.8 1261.88 390.8 1257.48C390.9 1254.38 390.1 1251.28 388.5 1248.58C386.8 1245.98 384.4 1243.98 381.5 1242.88C377.8 1241.38 373.8 1240.78 369.7 1240.88C367.1 1240.88 364.8 1240.88 362.9 1240.98C360.9 1240.88 359.5 1240.98 358.8 1241.08Z" fill="white"/>
<path d="M426.6 1246.88H444.1C445.1 1246.88 445.9 1247.58 446.2 1248.48C446.5 1249.28 446.7 1250.08 446.8 1250.98C447 1251.98 447.2 1253.08 447.3 1254.08C447.4 1255.18 447.5 1256.38 447.5 1257.68C450.5 1254.18 454.1 1251.28 458.2 1249.08C462.8 1246.48 468.1 1245.18 473.4 1245.18C474.1 1245.08 474.7 1245.58 474.8 1246.28V1266.18C474.8 1266.98 474.3 1267.28 473.2 1267.28C469.6 1267.18 465.9 1267.48 462.4 1268.28C459.5 1268.88 456.7 1269.78 454 1270.98C452.1 1271.88 450.3 1273.08 448.9 1274.68V1325.68C448.9 1326.68 448.5 1327.08 447.6 1327.08H427.9C427.1 1327.18 426.4 1326.68 426.3 1325.88V1270.08C426.3 1267.68 426.3 1265.18 426.2 1262.58C426.1 1259.98 426.1 1257.38 426 1254.78C426 1252.48 425.8 1250.28 425.6 1247.98C425.5 1247.48 425.8 1246.98 426.3 1246.88C426.3 1246.78 426.5 1246.78 426.6 1246.88Z" fill="white"/>
</svg>
