<svg width="791" height="747" viewBox="0 0 791 747" fill="none" xmlns="http://www.w3.org/2000/svg">
<path fill-rule="evenodd" clip-rule="evenodd" d="M351 141C351 160.741 346.943 179.535 339.617 196.593C290.488 211.169 248.137 241.51 218.427 281.752C215.639 281.917 212.829 282 210 282C132.128 282 69 218.872 69 141C69 63.1278 132.128 0 210 0C287.872 0 351 63.1278 351 141ZM174.792 449.039C173.609 439.526 173 429.834 173 420C173 368.242 189.877 320.425 218.427 281.752C272.922 278.54 319.095 244.377 339.617 196.593C360.655 190.351 382.936 187 406 187C429.072 187 451.361 190.354 472.406 196.6C487.9 240.524 529.774 272 579 272C581.283 272 583.551 271.932 585.801 271.799C617.447 310.149 637.061 358.796 638.864 411.961C595.744 427.881 565 469.35 565 518C565 538.666 570.547 558.035 580.234 574.702C537.554 622.736 475.311 653 406 653C366.695 653 329.663 643.268 297.183 626.082C299.031 616.673 300 606.95 300 597C300 522.602 245.837 460.855 174.792 449.039ZM174.792 449.039C184.359 525.992 231.451 591.301 297.183 626.082C283.642 695.006 222.893 747 150 747C67.1573 747 0 679.843 0 597C0 514.157 67.1573 447 150 447C158.445 447 166.727 447.698 174.792 449.039ZM580.234 574.702C616.794 533.556 639 479.371 639 420C639 417.309 638.954 414.629 638.864 411.961C651.058 407.459 664.242 405 678 405C740.408 405 791 455.592 791 518C791 580.408 740.408 631 678 631C636.257 631 599.801 608.366 580.234 574.702ZM585.801 271.799C645.043 268.282 692 219.125 692 159C692 96.5918 641.408 46 579 46C516.592 46 466 96.5918 466 159C466 172.182 468.257 184.837 472.406 196.6C517.388 209.951 556.687 236.517 585.801 271.799Z" fill="white"/>
<path d="M353.138 383.102L360.902 405.824H361.216L368.98 383.102H373.53L363.491 411H358.627L348.588 383.102H353.138ZM376.464 411V390.077H380.537V411H376.464ZM378.521 386.848C377.813 386.848 377.205 386.612 376.696 386.14C376.197 385.659 375.947 385.087 375.947 384.424C375.947 383.752 376.197 383.179 376.696 382.707C377.205 382.226 377.813 381.985 378.521 381.985C379.23 381.985 379.834 382.226 380.333 382.707C380.842 383.179 381.096 383.752 381.096 384.424C381.096 385.087 380.842 385.659 380.333 386.14C379.834 386.612 379.23 386.848 378.521 386.848ZM400.928 395.185L397.237 395.839C397.083 395.367 396.837 394.917 396.501 394.49C396.174 394.063 395.729 393.714 395.166 393.441C394.603 393.169 393.9 393.033 393.055 393.033C391.902 393.033 390.939 393.291 390.167 393.809C389.395 394.318 389.009 394.976 389.009 395.784C389.009 396.484 389.268 397.047 389.786 397.473C390.303 397.9 391.139 398.25 392.292 398.522L395.616 399.285C397.541 399.73 398.976 400.416 399.92 401.342C400.865 402.268 401.337 403.472 401.337 404.952C401.337 406.205 400.974 407.322 400.247 408.303C399.53 409.275 398.526 410.037 397.237 410.591C395.956 411.145 394.472 411.422 392.783 411.422C390.44 411.422 388.528 410.923 387.048 409.924C385.567 408.916 384.659 407.486 384.323 405.633L388.26 405.034C388.505 406.06 389.009 406.836 389.772 407.363C390.535 407.881 391.529 408.139 392.755 408.139C394.09 408.139 395.157 407.862 395.956 407.308C396.756 406.745 397.155 406.06 397.155 405.252C397.155 404.598 396.91 404.048 396.42 403.603C395.938 403.158 395.198 402.822 394.199 402.595L390.658 401.819C388.705 401.374 387.261 400.665 386.326 399.694C385.399 398.722 384.936 397.492 384.936 396.002C384.936 394.767 385.281 393.687 385.972 392.76C386.662 391.834 387.615 391.112 388.832 390.594C390.049 390.068 391.443 389.804 393.014 389.804C395.275 389.804 397.055 390.295 398.354 391.275C399.653 392.247 400.511 393.55 400.928 395.185ZM418.302 402.323V390.077H422.389V411H418.384V407.377H418.166C417.685 408.494 416.913 409.424 415.85 410.169C414.797 410.905 413.485 411.272 411.914 411.272C410.57 411.272 409.38 410.977 408.345 410.387C407.318 409.788 406.51 408.902 405.92 407.731C405.339 406.559 405.048 405.111 405.048 403.385V390.077H409.121V402.895C409.121 404.321 409.516 405.456 410.306 406.3C411.096 407.145 412.122 407.567 413.385 407.567C414.148 407.567 414.906 407.377 415.66 406.995C416.422 406.614 417.054 406.037 417.553 405.265C418.062 404.493 418.311 403.512 418.302 402.323ZM433.183 411.463C431.857 411.463 430.659 411.218 429.587 410.728C428.516 410.228 427.666 409.506 427.04 408.562C426.422 407.617 426.114 406.459 426.114 405.088C426.114 403.908 426.341 402.936 426.795 402.173C427.249 401.41 427.862 400.806 428.634 400.361C429.405 399.916 430.268 399.58 431.222 399.353C432.175 399.126 433.147 398.954 434.137 398.836C435.39 398.69 436.407 398.572 437.188 398.481C437.969 398.382 438.537 398.223 438.891 398.005C439.245 397.787 439.422 397.433 439.422 396.942V396.847C439.422 395.657 439.086 394.735 438.414 394.082C437.751 393.428 436.761 393.101 435.445 393.101C434.073 393.101 432.993 393.405 432.203 394.013C431.422 394.613 430.881 395.28 430.582 396.016L426.754 395.144C427.208 393.873 427.871 392.847 428.743 392.066C429.623 391.275 430.636 390.703 431.78 390.349C432.924 389.986 434.128 389.804 435.39 389.804C436.226 389.804 437.111 389.904 438.046 390.104C438.991 390.295 439.872 390.649 440.689 391.166C441.515 391.684 442.192 392.424 442.719 393.387C443.245 394.34 443.509 395.58 443.509 397.106V411H439.531V408.139H439.368C439.104 408.666 438.709 409.184 438.183 409.692C437.656 410.201 436.979 410.623 436.153 410.959C435.326 411.295 434.337 411.463 433.183 411.463ZM434.069 408.194C435.195 408.194 436.157 407.971 436.957 407.526C437.765 407.081 438.378 406.5 438.796 405.783C439.222 405.056 439.436 404.28 439.436 403.453V400.756C439.29 400.902 439.009 401.038 438.591 401.165C438.183 401.283 437.715 401.387 437.188 401.478C436.661 401.56 436.148 401.637 435.649 401.71C435.149 401.773 434.732 401.828 434.396 401.873C433.606 401.973 432.884 402.141 432.23 402.377C431.585 402.613 431.067 402.954 430.677 403.399C430.295 403.835 430.105 404.416 430.105 405.143C430.105 406.151 430.477 406.913 431.222 407.431C431.966 407.94 432.915 408.194 434.069 408.194ZM452.239 383.102V411H448.166V383.102H452.239ZM289.751 432.726V429.102H311.341V432.726H302.637V457H298.441V432.726H289.751ZM321.002 457.422C318.94 457.422 317.165 456.982 315.676 456.101C314.195 455.211 313.051 453.962 312.243 452.355C311.444 450.738 311.044 448.845 311.044 446.675C311.044 444.531 311.444 442.642 312.243 441.008C313.051 439.373 314.177 438.097 315.621 437.18C317.074 436.263 318.772 435.804 320.716 435.804C321.896 435.804 323.04 436 324.148 436.39C325.256 436.781 326.251 437.394 327.132 438.229C328.012 439.064 328.707 440.15 329.216 441.485C329.724 442.81 329.979 444.422 329.979 446.32V447.764H313.346V444.713H325.987C325.987 443.641 325.769 442.692 325.334 441.866C324.898 441.031 324.285 440.372 323.495 439.891C322.714 439.41 321.796 439.169 320.743 439.169C319.599 439.169 318.6 439.45 317.746 440.013C316.902 440.567 316.248 441.294 315.785 442.193C315.33 443.083 315.103 444.05 315.103 445.094V447.478C315.103 448.877 315.349 450.066 315.839 451.047C316.339 452.028 317.033 452.777 317.923 453.295C318.813 453.803 319.853 454.058 321.043 454.058C321.815 454.058 322.518 453.949 323.154 453.731C323.79 453.504 324.339 453.168 324.802 452.723C325.265 452.278 325.62 451.728 325.865 451.074L329.72 451.769C329.411 452.904 328.857 453.899 328.058 454.752C327.268 455.597 326.273 456.255 325.075 456.728C323.885 457.191 322.527 457.422 321.002 457.422ZM342.544 457.422C340.519 457.422 338.775 456.964 337.313 456.046C335.86 455.12 334.743 453.844 333.962 452.219C333.181 450.593 332.791 448.731 332.791 446.634C332.791 444.509 333.19 442.633 333.989 441.008C334.788 439.373 335.915 438.097 337.368 437.18C338.821 436.263 340.532 435.804 342.503 435.804C344.092 435.804 345.509 436.099 346.753 436.69C347.997 437.271 349.001 438.088 349.763 439.142C350.535 440.195 350.994 441.426 351.139 442.833H347.175C346.957 441.852 346.458 441.008 345.677 440.3C344.905 439.591 343.87 439.237 342.571 439.237C341.436 439.237 340.442 439.537 339.588 440.136C338.743 440.726 338.085 441.571 337.613 442.67C337.141 443.759 336.904 445.049 336.904 446.538C336.904 448.064 337.136 449.381 337.599 450.489C338.062 451.597 338.716 452.455 339.561 453.063C340.414 453.672 341.418 453.976 342.571 453.976C343.343 453.976 344.042 453.835 344.669 453.554C345.305 453.263 345.836 452.85 346.263 452.314C346.699 451.778 347.003 451.133 347.175 450.38H351.139C350.994 451.733 350.554 452.941 349.818 454.003C349.082 455.066 348.097 455.901 346.862 456.51C345.636 457.118 344.197 457.422 342.544 457.422ZM358.801 444.577V457H354.728V429.102H358.746V439.482H359.005C359.495 438.356 360.245 437.462 361.253 436.799C362.261 436.136 363.577 435.804 365.203 435.804C366.638 435.804 367.891 436.099 368.963 436.69C370.043 437.28 370.879 438.161 371.469 439.332C372.068 440.495 372.368 441.948 372.368 443.691V457H368.295V444.182C368.295 442.647 367.9 441.457 367.11 440.613C366.32 439.759 365.221 439.332 363.814 439.332C362.851 439.332 361.988 439.537 361.225 439.945C360.472 440.354 359.877 440.953 359.441 441.743C359.014 442.524 358.801 443.469 358.801 444.577ZM381.109 444.577V457H377.036V436.077H380.946V439.482H381.204C381.686 438.374 382.439 437.484 383.466 436.812C384.501 436.14 385.804 435.804 387.375 435.804C388.801 435.804 390.05 436.104 391.121 436.703C392.193 437.294 393.024 438.174 393.614 439.346C394.204 440.517 394.499 441.966 394.499 443.691V457H390.426V444.182C390.426 442.665 390.031 441.48 389.241 440.626C388.451 439.764 387.366 439.332 385.986 439.332C385.041 439.332 384.201 439.537 383.466 439.945C382.739 440.354 382.162 440.953 381.736 441.743C381.318 442.524 381.109 443.469 381.109 444.577ZM408.008 457.422C406.046 457.422 404.335 456.973 402.873 456.074C401.41 455.175 400.275 453.917 399.467 452.3C398.659 450.684 398.255 448.795 398.255 446.634C398.255 444.463 398.659 442.565 399.467 440.94C400.275 439.314 401.41 438.052 402.873 437.153C404.335 436.254 406.046 435.804 408.008 435.804C409.97 435.804 411.681 436.254 413.143 437.153C414.606 438.052 415.741 439.314 416.549 440.94C417.357 442.565 417.761 444.463 417.761 446.634C417.761 448.795 417.357 450.684 416.549 452.3C415.741 453.917 414.606 455.175 413.143 456.074C411.681 456.973 409.97 457.422 408.008 457.422ZM408.022 454.003C409.293 454.003 410.346 453.667 411.182 452.995C412.017 452.323 412.635 451.429 413.035 450.312C413.443 449.195 413.647 447.964 413.647 446.62C413.647 445.285 413.443 444.059 413.035 442.942C412.635 441.816 412.017 440.912 411.182 440.231C410.346 439.55 409.293 439.21 408.022 439.21C406.741 439.21 405.679 439.55 404.834 440.231C403.999 440.912 403.377 441.816 402.968 442.942C402.568 444.059 402.369 445.285 402.369 446.62C402.369 447.964 402.568 449.195 402.968 450.312C403.377 451.429 403.999 452.323 404.834 452.995C405.679 453.667 406.741 454.003 408.022 454.003ZM425.613 429.102V457H421.54V429.102H425.613ZM439.139 457.422C437.177 457.422 435.466 456.973 434.004 456.074C432.541 455.175 431.406 453.917 430.598 452.3C429.79 450.684 429.386 448.795 429.386 446.634C429.386 444.463 429.79 442.565 430.598 440.94C431.406 439.314 432.541 438.052 434.004 437.153C435.466 436.254 437.177 435.804 439.139 435.804C441.101 435.804 442.812 436.254 444.274 437.153C445.737 438.052 446.872 439.314 447.68 440.94C448.488 442.565 448.892 444.463 448.892 446.634C448.892 448.795 448.488 450.684 447.68 452.3C446.872 453.917 445.737 455.175 444.274 456.074C442.812 456.973 441.101 457.422 439.139 457.422ZM439.153 454.003C440.424 454.003 441.477 453.667 442.313 452.995C443.148 452.323 443.766 451.429 444.166 450.312C444.574 449.195 444.779 447.964 444.779 446.62C444.779 445.285 444.574 444.059 444.166 442.942C443.766 441.816 443.148 440.912 442.313 440.231C441.477 439.55 440.424 439.21 439.153 439.21C437.872 439.21 436.81 439.55 435.965 440.231C435.13 440.912 434.508 441.816 434.099 442.942C433.699 444.059 433.5 445.285 433.5 446.62C433.5 447.964 433.699 449.195 434.099 450.312C434.508 451.429 435.13 452.323 435.965 452.995C436.81 453.667 437.872 454.003 439.153 454.003ZM461.444 465.282C459.782 465.282 458.352 465.064 457.153 464.628C455.963 464.192 454.992 463.616 454.238 462.898C453.484 462.181 452.921 461.395 452.549 460.542L456.05 459.098C456.295 459.497 456.622 459.92 457.03 460.365C457.448 460.819 458.011 461.205 458.72 461.522C459.437 461.84 460.359 461.999 461.485 461.999C463.029 461.999 464.305 461.622 465.313 460.869C466.321 460.124 466.825 458.934 466.825 457.3V453.186H466.566C466.321 453.631 465.966 454.126 465.503 454.671C465.049 455.216 464.423 455.688 463.623 456.087C462.824 456.487 461.785 456.687 460.504 456.687C458.851 456.687 457.362 456.301 456.036 455.529C454.719 454.748 453.675 453.599 452.903 452.082C452.14 450.557 451.759 448.682 451.759 446.457C451.759 444.232 452.136 442.325 452.889 440.735C453.652 439.146 454.697 437.929 456.022 437.085C457.348 436.231 458.851 435.804 460.531 435.804C461.83 435.804 462.879 436.022 463.678 436.458C464.477 436.885 465.099 437.384 465.544 437.957C465.998 438.529 466.348 439.033 466.593 439.469H466.893V436.077H470.884V457.463C470.884 459.261 470.466 460.737 469.631 461.89C468.795 463.044 467.665 463.897 466.239 464.451C464.822 465.005 463.224 465.282 461.444 465.282ZM461.403 453.308C462.575 453.308 463.564 453.036 464.373 452.491C465.19 451.937 465.808 451.147 466.225 450.121C466.652 449.086 466.866 447.846 466.866 446.402C466.866 444.995 466.657 443.755 466.239 442.683C465.821 441.612 465.208 440.776 464.4 440.177C463.592 439.568 462.593 439.264 461.403 439.264C460.177 439.264 459.155 439.582 458.338 440.218C457.521 440.844 456.903 441.698 456.486 442.779C456.077 443.859 455.873 445.067 455.873 446.402C455.873 447.773 456.081 448.977 456.499 450.012C456.917 451.047 457.534 451.855 458.352 452.437C459.178 453.018 460.195 453.308 461.403 453.308ZM475.579 457V436.077H479.652V457H475.579ZM477.636 432.848C476.928 432.848 476.319 432.612 475.811 432.14C475.311 431.659 475.062 431.087 475.062 430.424C475.062 429.752 475.311 429.179 475.811 428.707C476.319 428.226 476.928 427.985 477.636 427.985C478.344 427.985 478.948 428.226 479.448 428.707C479.956 429.179 480.211 429.752 480.211 430.424C480.211 431.087 479.956 431.659 479.448 432.14C478.948 432.612 478.344 432.848 477.636 432.848ZM493.382 457.422C491.321 457.422 489.545 456.982 488.056 456.101C486.576 455.211 485.431 453.962 484.623 452.355C483.824 450.738 483.424 448.845 483.424 446.675C483.424 444.531 483.824 442.642 484.623 441.008C485.431 439.373 486.558 438.097 488.001 437.18C489.454 436.263 491.153 435.804 493.096 435.804C494.277 435.804 495.421 436 496.529 436.39C497.637 436.781 498.631 437.394 499.512 438.229C500.393 439.064 501.088 440.15 501.596 441.485C502.105 442.81 502.359 444.422 502.359 446.32V447.764H485.727V444.713H498.368C498.368 443.641 498.15 442.692 497.714 441.866C497.278 441.031 496.665 440.372 495.875 439.891C495.094 439.41 494.177 439.169 493.123 439.169C491.979 439.169 490.98 439.45 490.126 440.013C489.282 440.567 488.628 441.294 488.165 442.193C487.711 443.083 487.484 444.05 487.484 445.094V447.478C487.484 448.877 487.729 450.066 488.219 451.047C488.719 452.028 489.414 452.777 490.304 453.295C491.194 453.803 492.233 454.058 493.423 454.058C494.195 454.058 494.899 453.949 495.534 453.731C496.17 453.504 496.719 453.168 497.183 452.723C497.646 452.278 498 451.728 498.245 451.074L502.1 451.769C501.791 452.904 501.237 453.899 500.438 454.752C499.648 455.597 498.654 456.255 497.455 456.728C496.265 457.191 494.908 457.422 493.382 457.422ZM521.79 441.185L518.098 441.839C517.944 441.367 517.699 440.917 517.363 440.49C517.036 440.063 516.591 439.714 516.028 439.441C515.465 439.169 514.761 439.033 513.916 439.033C512.763 439.033 511.8 439.291 511.028 439.809C510.256 440.318 509.87 440.976 509.87 441.784C509.87 442.484 510.129 443.047 510.647 443.473C511.165 443.9 512 444.25 513.153 444.522L516.477 445.285C518.402 445.73 519.837 446.416 520.782 447.342C521.726 448.268 522.198 449.472 522.198 450.952C522.198 452.205 521.835 453.322 521.109 454.303C520.391 455.275 519.388 456.037 518.098 456.591C516.818 457.145 515.333 457.422 513.644 457.422C511.301 457.422 509.389 456.923 507.909 455.924C506.429 454.916 505.521 453.486 505.185 451.633L509.121 451.034C509.366 452.06 509.87 452.836 510.633 453.363C511.396 453.881 512.391 454.139 513.617 454.139C514.951 454.139 516.019 453.862 516.818 453.308C517.617 452.745 518.016 452.06 518.016 451.252C518.016 450.598 517.771 450.048 517.281 449.603C516.8 449.158 516.059 448.822 515.06 448.595L511.519 447.819C509.566 447.374 508.122 446.665 507.187 445.694C506.261 444.722 505.798 443.492 505.798 442.002C505.798 440.767 506.143 439.687 506.833 438.76C507.523 437.834 508.477 437.112 509.693 436.594C510.91 436.068 512.304 435.804 513.875 435.804C516.137 435.804 517.917 436.295 519.215 437.275C520.514 438.247 521.372 439.55 521.79 441.185Z" fill="#202A45"/>
<path d="M181.301 135.916C181.038 135.089 180.684 134.349 180.239 133.695C179.803 133.032 179.281 132.469 178.672 132.006C178.064 131.534 177.369 131.175 176.588 130.93C175.816 130.685 174.967 130.562 174.041 130.562C172.47 130.562 171.053 130.966 169.791 131.775C168.528 132.583 167.529 133.768 166.794 135.33C166.067 136.883 165.704 138.785 165.704 141.038C165.704 143.299 166.072 145.21 166.807 146.772C167.543 148.334 168.551 149.519 169.831 150.328C171.112 151.136 172.569 151.54 174.204 151.54C175.721 151.54 177.042 151.231 178.168 150.614C179.303 149.996 180.18 149.124 180.797 147.998C181.424 146.863 181.737 145.528 181.737 143.993L182.827 144.198H174.844V140.724H185.81V143.898C185.81 146.241 185.311 148.275 184.312 150.001C183.322 151.717 181.95 153.043 180.198 153.978C178.454 154.914 176.456 155.381 174.204 155.381C171.679 155.381 169.464 154.8 167.557 153.638C165.659 152.475 164.178 150.827 163.116 148.693C162.053 146.55 161.522 144.007 161.522 141.065C161.522 138.84 161.831 136.842 162.448 135.071C163.066 133.3 163.933 131.797 165.05 130.562C166.176 129.318 167.498 128.369 169.014 127.715C170.54 127.052 172.206 126.721 174.013 126.721C175.521 126.721 176.924 126.943 178.223 127.388C179.53 127.833 180.693 128.464 181.71 129.282C182.736 130.099 183.585 131.071 184.257 132.197C184.929 133.314 185.383 134.553 185.619 135.916H181.301ZM205.602 134.431C205.456 133.141 204.857 132.142 203.804 131.434C202.75 130.717 201.424 130.358 199.826 130.358C198.682 130.358 197.692 130.54 196.856 130.903C196.021 131.257 195.372 131.747 194.908 132.374C194.454 132.992 194.227 133.695 194.227 134.485C194.227 135.148 194.382 135.72 194.691 136.202C195.008 136.683 195.422 137.087 195.93 137.414C196.448 137.732 197.002 138 197.592 138.218C198.182 138.427 198.75 138.599 199.295 138.735L202.019 139.444C202.909 139.662 203.822 139.957 204.757 140.329C205.693 140.702 206.56 141.192 207.359 141.8C208.158 142.409 208.803 143.163 209.293 144.062C209.793 144.961 210.042 146.037 210.042 147.29C210.042 148.87 209.634 150.273 208.816 151.499C208.008 152.725 206.832 153.692 205.288 154.401C203.754 155.109 201.897 155.463 199.717 155.463C197.628 155.463 195.821 155.132 194.295 154.469C192.77 153.806 191.576 152.866 190.713 151.649C189.85 150.423 189.373 148.97 189.283 147.29H193.505C193.587 148.298 193.914 149.138 194.486 149.81C195.067 150.473 195.808 150.968 196.707 151.295C197.615 151.613 198.609 151.772 199.69 151.772C200.879 151.772 201.937 151.585 202.864 151.213C203.799 150.832 204.535 150.305 205.07 149.633C205.606 148.952 205.874 148.157 205.874 147.249C205.874 146.423 205.638 145.746 205.166 145.219C204.703 144.693 204.071 144.257 203.272 143.912C202.482 143.567 201.588 143.262 200.589 142.999L197.292 142.1C195.058 141.492 193.287 140.597 191.98 139.417C190.681 138.236 190.032 136.674 190.032 134.731C190.032 133.123 190.468 131.72 191.34 130.521C192.211 129.323 193.392 128.392 194.881 127.729C196.371 127.057 198.051 126.721 199.921 126.721C201.81 126.721 203.477 127.052 204.921 127.715C206.374 128.378 207.518 129.291 208.353 130.453C209.189 131.607 209.625 132.932 209.661 134.431H205.602ZM216.437 155H211.969L222.008 127.102H226.871L236.911 155H232.443L224.556 132.17H224.338L216.437 155ZM217.186 144.075H231.68V147.617H217.186V144.075ZM240.172 155V127.102H250.116C252.287 127.102 254.085 127.497 255.511 128.287C256.936 129.077 258.003 130.158 258.712 131.529C259.42 132.892 259.774 134.426 259.774 136.134C259.774 137.85 259.415 139.394 258.698 140.765C257.99 142.127 256.918 143.208 255.483 144.007C254.058 144.797 252.264 145.192 250.103 145.192H243.264V141.623H249.721C251.092 141.623 252.205 141.387 253.059 140.915C253.912 140.434 254.539 139.78 254.938 138.953C255.338 138.127 255.538 137.187 255.538 136.134C255.538 135.08 255.338 134.145 254.938 133.328C254.539 132.51 253.908 131.87 253.045 131.407C252.191 130.944 251.065 130.712 249.667 130.712H244.381V155H240.172Z" fill="#202A45"/>
<path d="M90.1204 611V583.102H107.42V586.726H94.3296V595.226H106.181V598.836H94.3296V611H90.1204ZM111.24 611V590.077H115.177V593.4H115.395C115.776 592.274 116.448 591.389 117.411 590.744C118.383 590.09 119.481 589.763 120.707 589.763C120.962 589.763 121.261 589.772 121.607 589.791C121.961 589.809 122.238 589.832 122.437 589.859V593.755C122.274 593.709 121.983 593.659 121.566 593.605C121.148 593.541 120.73 593.509 120.312 593.509C119.35 593.509 118.492 593.714 117.738 594.122C116.993 594.522 116.403 595.081 115.967 595.798C115.531 596.506 115.313 597.315 115.313 598.223V611H111.24ZM131.097 611.463C129.771 611.463 128.572 611.218 127.5 610.728C126.429 610.228 125.58 609.506 124.953 608.562C124.336 607.617 124.027 606.459 124.027 605.088C124.027 603.908 124.254 602.936 124.708 602.173C125.162 601.41 125.775 600.806 126.547 600.361C127.319 599.916 128.182 599.58 129.135 599.353C130.089 599.126 131.06 598.954 132.05 598.836C133.303 598.69 134.32 598.572 135.101 598.481C135.882 598.382 136.45 598.223 136.804 598.005C137.158 597.787 137.335 597.433 137.335 596.942V596.847C137.335 595.657 136.999 594.735 136.327 594.082C135.665 593.428 134.675 593.101 133.358 593.101C131.987 593.101 130.906 593.405 130.116 594.013C129.335 594.613 128.795 595.28 128.495 596.016L124.667 595.144C125.121 593.873 125.784 592.847 126.656 592.066C127.537 591.275 128.549 590.703 129.694 590.349C130.838 589.986 132.041 589.804 133.303 589.804C134.139 589.804 135.024 589.904 135.96 590.104C136.904 590.295 137.785 590.649 138.602 591.166C139.429 591.684 140.105 592.424 140.632 593.387C141.159 594.34 141.422 595.58 141.422 597.106V611H137.444V608.139H137.281C137.018 608.666 136.623 609.184 136.096 609.692C135.569 610.201 134.893 610.623 134.066 610.959C133.24 611.295 132.25 611.463 131.097 611.463ZM131.982 608.194C133.108 608.194 134.071 607.971 134.87 607.526C135.678 607.081 136.291 606.5 136.709 605.783C137.136 605.056 137.349 604.28 137.349 603.453V600.756C137.204 600.902 136.922 601.038 136.505 601.165C136.096 601.283 135.628 601.387 135.101 601.478C134.575 601.56 134.062 601.637 133.562 601.71C133.063 601.773 132.645 601.828 132.309 601.873C131.519 601.973 130.797 602.141 130.143 602.377C129.498 602.613 128.981 602.954 128.59 603.399C128.209 603.835 128.018 604.416 128.018 605.143C128.018 606.151 128.39 606.913 129.135 607.431C129.88 607.94 130.829 608.194 131.982 608.194ZM146.08 611V590.077H149.989V593.482H150.248C150.684 592.329 151.397 591.43 152.387 590.785C153.377 590.131 154.562 589.804 155.942 589.804C157.341 589.804 158.512 590.131 159.457 590.785C160.41 591.439 161.114 592.338 161.568 593.482H161.786C162.285 592.365 163.08 591.475 164.17 590.812C165.259 590.14 166.558 589.804 168.066 589.804C169.964 589.804 171.512 590.399 172.711 591.589C173.918 592.778 174.522 594.572 174.522 596.969V611H170.449V597.351C170.449 595.934 170.063 594.908 169.292 594.272C168.52 593.637 167.598 593.319 166.526 593.319C165.2 593.319 164.17 593.727 163.434 594.545C162.699 595.353 162.331 596.393 162.331 597.664V611H158.271V597.092C158.271 595.957 157.917 595.044 157.209 594.354C156.501 593.664 155.579 593.319 154.444 593.319C153.672 593.319 152.959 593.523 152.305 593.932C151.66 594.331 151.138 594.89 150.739 595.607C150.348 596.325 150.153 597.156 150.153 598.1V611H146.08ZM188.232 611.422C186.17 611.422 184.395 610.982 182.906 610.101C181.425 609.211 180.281 607.962 179.473 606.355C178.674 604.738 178.274 602.845 178.274 600.675C178.274 598.531 178.674 596.642 179.473 595.008C180.281 593.373 181.407 592.097 182.851 591.18C184.304 590.263 186.002 589.804 187.946 589.804C189.126 589.804 190.271 590 191.379 590.39C192.487 590.781 193.481 591.394 194.362 592.229C195.243 593.064 195.937 594.15 196.446 595.485C196.954 596.81 197.209 598.422 197.209 600.32V601.764H180.576V598.713H193.218C193.218 597.641 193 596.692 192.564 595.866C192.128 595.031 191.515 594.372 190.725 593.891C189.944 593.41 189.027 593.169 187.973 593.169C186.829 593.169 185.83 593.45 184.976 594.013C184.132 594.567 183.478 595.294 183.015 596.193C182.561 597.083 182.334 598.05 182.334 599.094V601.478C182.334 602.877 182.579 604.066 183.069 605.047C183.569 606.028 184.263 606.777 185.153 607.295C186.043 607.803 187.083 608.058 188.273 608.058C189.045 608.058 189.748 607.949 190.384 607.731C191.02 607.504 191.569 607.168 192.032 606.723C192.496 606.278 192.85 605.728 193.095 605.074L196.95 605.769C196.641 606.904 196.087 607.899 195.288 608.752C194.498 609.597 193.504 610.255 192.305 610.728C191.115 611.191 189.758 611.422 188.232 611.422ZM200.961 611V590.077H204.897V593.4H205.115C205.497 592.274 206.169 591.389 207.131 590.744C208.103 590.09 209.202 589.763 210.428 589.763C210.682 589.763 210.982 589.772 211.327 589.791C211.681 589.809 211.958 589.832 212.158 589.859V593.755C211.994 593.709 211.704 593.659 211.286 593.605C210.868 593.541 210.451 593.509 210.033 593.509C209.07 593.509 208.212 593.714 207.458 594.122C206.714 594.522 206.123 595.081 205.687 595.798C205.252 596.506 205.034 597.315 205.034 598.223V611H200.961Z" fill="#202A45"/>
<path d="M547.298 152.431C547.153 151.141 546.553 150.142 545.5 149.434C544.447 148.717 543.121 148.358 541.522 148.358C540.378 148.358 539.388 148.54 538.553 148.903C537.717 149.257 537.068 149.747 536.605 150.374C536.151 150.992 535.924 151.695 535.924 152.485C535.924 153.148 536.078 153.72 536.387 154.202C536.705 154.683 537.118 155.087 537.627 155.414C538.144 155.732 538.698 156 539.288 156.218C539.879 156.427 540.446 156.599 540.991 156.735L543.716 157.444C544.605 157.662 545.518 157.957 546.454 158.329C547.389 158.702 548.256 159.192 549.055 159.8C549.854 160.409 550.499 161.163 550.99 162.062C551.489 162.961 551.739 164.037 551.739 165.29C551.739 166.87 551.33 168.273 550.513 169.499C549.705 170.725 548.529 171.692 546.985 172.401C545.45 173.109 543.593 173.463 541.413 173.463C539.325 173.463 537.518 173.132 535.992 172.469C534.466 171.806 533.272 170.866 532.409 169.649C531.547 168.423 531.07 166.97 530.979 165.29H535.202C535.284 166.298 535.61 167.138 536.183 167.81C536.764 168.473 537.504 168.968 538.403 169.295C539.311 169.613 540.305 169.772 541.386 169.772C542.576 169.772 543.634 169.585 544.56 169.213C545.495 168.832 546.231 168.305 546.767 167.633C547.303 166.952 547.571 166.157 547.571 165.249C547.571 164.423 547.334 163.746 546.862 163.219C546.399 162.693 545.768 162.257 544.969 161.912C544.179 161.567 543.284 161.262 542.285 160.999L538.989 160.1C536.755 159.492 534.984 158.597 533.676 157.417C532.378 156.236 531.728 154.674 531.728 152.731C531.728 151.123 532.164 149.72 533.036 148.521C533.908 147.323 535.088 146.392 536.578 145.729C538.067 145.057 539.747 144.721 541.618 144.721C543.507 144.721 545.173 145.052 546.617 145.715C548.07 146.378 549.214 147.291 550.05 148.453C550.885 149.607 551.321 150.932 551.357 152.431H547.298ZM579.172 154.174H574.922C574.759 153.266 574.455 152.467 574.01 151.777C573.565 151.087 573.02 150.501 572.375 150.02C571.73 149.538 571.008 149.175 570.209 148.93C569.419 148.685 568.579 148.562 567.689 148.562C566.082 148.562 564.642 148.966 563.371 149.775C562.109 150.583 561.11 151.768 560.374 153.33C559.648 154.892 559.284 156.799 559.284 159.051C559.284 161.321 559.648 163.238 560.374 164.8C561.11 166.362 562.113 167.542 563.385 168.341C564.656 169.14 566.086 169.54 567.676 169.54C568.556 169.54 569.392 169.422 570.182 169.186C570.981 168.941 571.703 168.582 572.348 168.11C572.993 167.638 573.538 167.061 573.982 166.38C574.437 165.69 574.75 164.899 574.922 164.01L579.172 164.023C578.945 165.394 578.505 166.657 577.851 167.81C577.206 168.954 576.375 169.944 575.358 170.78C574.35 171.606 573.197 172.246 571.898 172.7C570.6 173.154 569.183 173.381 567.648 173.381C565.233 173.381 563.08 172.809 561.192 171.665C559.303 170.512 557.813 168.863 556.724 166.72C555.643 164.577 555.103 162.021 555.103 159.051C555.103 156.072 555.647 153.516 556.737 151.382C557.827 149.239 559.316 147.595 561.205 146.451C563.094 145.298 565.242 144.721 567.648 144.721C569.129 144.721 570.509 144.934 571.789 145.361C573.079 145.779 574.237 146.396 575.263 147.214C576.289 148.022 577.138 149.012 577.81 150.183C578.482 151.346 578.936 152.676 579.172 154.174ZM598.658 152.431C598.512 151.141 597.913 150.142 596.86 149.434C595.806 148.717 594.48 148.358 592.882 148.358C591.738 148.358 590.748 148.54 589.912 148.903C589.077 149.257 588.428 149.747 587.964 150.374C587.51 150.992 587.283 151.695 587.283 152.485C587.283 153.148 587.438 153.72 587.747 154.202C588.064 154.683 588.478 155.087 588.986 155.414C589.504 155.732 590.058 156 590.648 156.218C591.238 156.427 591.806 156.599 592.351 156.735L595.075 157.444C595.965 157.662 596.878 157.957 597.813 158.329C598.748 158.702 599.616 159.192 600.415 159.8C601.214 160.409 601.859 161.163 602.349 162.062C602.849 162.961 603.098 164.037 603.098 165.29C603.098 166.87 602.69 168.273 601.872 169.499C601.064 170.725 599.888 171.692 598.344 172.401C596.81 173.109 594.953 173.463 592.773 173.463C590.684 173.463 588.877 173.132 587.351 172.469C585.826 171.806 584.632 170.866 583.769 169.649C582.906 168.423 582.429 166.97 582.339 165.29H586.561C586.643 166.298 586.97 167.138 587.542 167.81C588.123 168.473 588.863 168.968 589.763 169.295C590.671 169.613 591.665 169.772 592.746 169.772C593.935 169.772 594.993 169.585 595.92 169.213C596.855 168.832 597.591 168.305 598.126 167.633C598.662 166.952 598.93 166.157 598.93 165.249C598.93 164.423 598.694 163.746 598.222 163.219C597.759 162.693 597.127 162.257 596.328 161.912C595.538 161.567 594.644 161.262 593.645 160.999L590.348 160.1C588.114 159.492 586.343 158.597 585.036 157.417C583.737 156.236 583.088 154.674 583.088 152.731C583.088 151.123 583.524 149.72 584.396 148.521C585.267 147.323 586.448 146.392 587.937 145.729C589.427 145.057 591.107 144.721 592.977 144.721C594.866 144.721 596.533 145.052 597.977 145.715C599.43 146.378 600.574 147.291 601.409 148.453C602.245 149.607 602.681 150.932 602.717 152.431H598.658ZM622.577 152.431C622.432 151.141 621.832 150.142 620.779 149.434C619.725 148.717 618.399 148.358 616.801 148.358C615.657 148.358 614.667 148.54 613.832 148.903C612.996 149.257 612.347 149.747 611.884 150.374C611.43 150.992 611.203 151.695 611.203 152.485C611.203 153.148 611.357 153.72 611.666 154.202C611.984 154.683 612.397 155.087 612.905 155.414C613.423 155.732 613.977 156 614.567 156.218C615.157 156.427 615.725 156.599 616.27 156.735L618.994 157.444C619.884 157.662 620.797 157.957 621.732 158.329C622.668 158.702 623.535 159.192 624.334 159.8C625.133 160.409 625.778 161.163 626.268 162.062C626.768 162.961 627.018 164.037 627.018 165.29C627.018 166.87 626.609 168.273 625.792 169.499C624.983 170.725 623.807 171.692 622.264 172.401C620.729 173.109 618.872 173.463 616.692 173.463C614.603 173.463 612.796 173.132 611.271 172.469C609.745 171.806 608.551 170.866 607.688 169.649C606.825 168.423 606.349 166.97 606.258 165.29H610.481C610.562 166.298 610.889 167.138 611.461 167.81C612.043 168.473 612.783 168.968 613.682 169.295C614.59 169.613 615.584 169.772 616.665 169.772C617.855 169.772 618.913 169.585 619.839 169.213C620.774 168.832 621.51 168.305 622.046 167.633C622.581 166.952 622.849 166.157 622.849 165.249C622.849 164.423 622.613 163.746 622.141 163.219C621.678 162.693 621.047 162.257 620.247 161.912C619.457 161.567 618.563 161.262 617.564 160.999L614.267 160.1C612.033 159.492 610.263 158.597 608.955 157.417C607.656 156.236 607.007 154.674 607.007 152.731C607.007 151.123 607.443 149.72 608.315 148.521C609.186 147.323 610.367 146.392 611.856 145.729C613.346 145.057 615.026 144.721 616.896 144.721C618.785 144.721 620.452 145.052 621.896 145.715C623.349 146.378 624.493 147.291 625.328 148.453C626.164 149.607 626.6 150.932 626.636 152.431H622.577Z" fill="#202A45"/>
<path d="M666.713 513.174H662.463C662.299 512.266 661.995 511.467 661.55 510.777C661.105 510.087 660.56 509.501 659.916 509.02C659.271 508.538 658.549 508.175 657.75 507.93C656.96 507.685 656.12 507.562 655.23 507.562C653.622 507.562 652.183 507.966 650.911 508.775C649.649 509.583 648.65 510.768 647.915 512.33C647.188 513.892 646.825 515.799 646.825 518.051C646.825 520.321 647.188 522.238 647.915 523.8C648.65 525.362 649.654 526.542 650.925 527.341C652.196 528.14 653.627 528.54 655.216 528.54C656.097 528.54 656.932 528.422 657.722 528.186C658.522 527.941 659.244 527.582 659.888 527.11C660.533 526.638 661.078 526.061 661.523 525.38C661.977 524.69 662.29 523.899 662.463 523.01L666.713 523.023C666.486 524.394 666.045 525.657 665.392 526.81C664.747 527.954 663.916 528.944 662.899 529.78C661.891 530.606 660.737 531.246 659.439 531.7C658.14 532.154 656.723 532.381 655.189 532.381C652.773 532.381 650.621 531.809 648.732 530.665C646.843 529.512 645.354 527.863 644.264 525.72C643.183 523.577 642.643 521.021 642.643 518.051C642.643 515.072 643.188 512.516 644.278 510.382C645.367 508.239 646.857 506.595 648.746 505.451C650.634 504.298 652.782 503.721 655.189 503.721C656.669 503.721 658.049 503.934 659.33 504.361C660.619 504.779 661.777 505.396 662.803 506.214C663.83 507.022 664.679 508.012 665.351 509.183C666.023 510.346 666.477 511.676 666.713 513.174ZM686.198 511.431C686.053 510.141 685.453 509.142 684.4 508.434C683.347 507.717 682.021 507.358 680.422 507.358C679.278 507.358 678.288 507.54 677.453 507.903C676.617 508.257 675.968 508.747 675.505 509.374C675.051 509.992 674.824 510.695 674.824 511.485C674.824 512.148 674.978 512.72 675.287 513.202C675.605 513.683 676.018 514.087 676.527 514.414C677.044 514.732 677.598 515 678.188 515.218C678.779 515.427 679.346 515.599 679.891 515.735L682.616 516.444C683.505 516.662 684.418 516.957 685.354 517.329C686.289 517.702 687.156 518.192 687.955 518.8C688.754 519.409 689.399 520.163 689.89 521.062C690.389 521.961 690.639 523.037 690.639 524.29C690.639 525.87 690.23 527.273 689.413 528.499C688.605 529.725 687.429 530.692 685.885 531.401C684.35 532.109 682.493 532.463 680.313 532.463C678.225 532.463 676.418 532.132 674.892 531.469C673.366 530.806 672.172 529.866 671.309 528.649C670.447 527.423 669.97 525.97 669.879 524.29H674.102C674.184 525.298 674.51 526.138 675.083 526.81C675.664 527.473 676.404 527.968 677.303 528.295C678.211 528.613 679.206 528.772 680.286 528.772C681.476 528.772 682.534 528.585 683.46 528.213C684.395 527.832 685.131 527.305 685.667 526.633C686.203 525.952 686.471 525.157 686.471 524.249C686.471 523.423 686.234 522.746 685.762 522.219C685.299 521.693 684.668 521.257 683.869 520.912C683.079 520.567 682.184 520.262 681.185 519.999L677.889 519.1C675.655 518.492 673.884 517.597 672.576 516.417C671.278 515.236 670.628 513.674 670.628 511.731C670.628 510.123 671.064 508.72 671.936 507.521C672.808 506.323 673.988 505.392 675.478 504.729C676.967 504.057 678.647 503.721 680.518 503.721C682.407 503.721 684.073 504.052 685.517 504.715C686.97 505.378 688.114 506.291 688.95 507.453C689.785 508.607 690.221 509.932 690.257 511.431H686.198ZM710.117 511.431C709.972 510.141 709.373 509.142 708.319 508.434C707.266 507.717 705.94 507.358 704.342 507.358C703.197 507.358 702.207 507.54 701.372 507.903C700.536 508.257 699.887 508.747 699.424 509.374C698.97 509.992 698.743 510.695 698.743 511.485C698.743 512.148 698.897 512.72 699.206 513.202C699.524 513.683 699.937 514.087 700.446 514.414C700.963 514.732 701.517 515 702.108 515.218C702.698 515.427 703.265 515.599 703.81 515.735L706.535 516.444C707.425 516.662 708.337 516.957 709.273 517.329C710.208 517.702 711.075 518.192 711.874 518.8C712.674 519.409 713.318 520.163 713.809 521.062C714.308 521.961 714.558 523.037 714.558 524.29C714.558 525.87 714.149 527.273 713.332 528.499C712.524 529.725 711.348 530.692 709.804 531.401C708.269 532.109 706.412 532.463 704.233 532.463C702.144 532.463 700.337 532.132 698.811 531.469C697.285 530.806 696.091 529.866 695.228 528.649C694.366 527.423 693.889 525.97 693.798 524.29H698.021C698.103 525.298 698.43 526.138 699.002 526.81C699.583 527.473 700.323 527.968 701.222 528.295C702.13 528.613 703.125 528.772 704.205 528.772C705.395 528.772 706.453 528.585 707.379 528.213C708.315 527.832 709.05 527.305 709.586 526.633C710.122 525.952 710.39 525.157 710.39 524.249C710.39 523.423 710.154 522.746 709.681 522.219C709.218 521.693 708.587 521.257 707.788 520.912C706.998 520.567 706.103 520.262 705.104 519.999L701.808 519.1C699.574 518.492 697.803 517.597 696.495 516.417C695.197 515.236 694.547 513.674 694.547 511.731C694.547 510.123 694.983 508.72 695.855 507.521C696.727 506.323 697.907 505.392 699.397 504.729C700.886 504.057 702.566 503.721 704.437 503.721C706.326 503.721 707.992 504.052 709.436 504.715C710.889 505.378 712.033 506.291 712.869 507.453C713.704 508.607 714.14 509.932 714.177 511.431H710.117Z" fill="#202A45"/>
</svg>
