{
  "asset": {
    "version": "2.0",
    "generator": "THREE.GLTFExporter"
  },
  "scenes": [
    {
      "name": "Scene",
      "nodes": [
        7
      ]
    }
  ],
  "scene": 0,
  "nodes": [
    {
      "name": "head_Cube001_skin",
      "mesh": 0
    },
    {
      "name": "head_Cube001_eyes",
      "mesh": 1
    },
    {
      "name": "eyebrow_Cube015_hair",
      "mesh": 2
    },
    {
      "name": "head003_Cube018_hair",
      "mesh": 3
    },
    {
      "name": "head006_Cube021_dots",
      "mesh": 4
    },
    {
      "name": "head007_Cube022_teeth",
      "mesh": 5
    },
    {
      "name": "head008_Cube005_teeth",
      "mesh": 6
    },
    {
      "matrix": [
        1,
        0,
        0,
        0,
        0,
        1,
        0,
        0,
        0,
        0,
        1,
        0,
        -0.0015568470796014922,
        2.220446049250313e-16,
        0,
        1
      ],
      "name": "model.glb",
      "children": [
        0,
        1,
        2,
        3,
        4,
        5,
        6
      ]
    }
  ],
  "bufferViews": [
    {
      "buffer": 0,
      "byteOffset": 0,
      "byteLength": 162384,
      "target": 34962,
      "byteStride": 12
    },
    {
      "buffer": 0,
      "byteOffset": 162384,
      "byteLength": 162384,
      "target": 34962,
      "byteStride": 12
    },
    {
      "buffer": 0,
      "byteOffset": 324768,
      "byteLength": 108256,
      "target": 34962,
      "byteStride": 8
    },
    {
      "buffer": 0,
      "byteOffset": 433024,
      "byteLength": 321024,
      "target": 34963
    },
    {
      "buffer": 0,
      "byteOffset": 754048,
      "byteLength": 1944,
      "target": 34962,
      "byteStride": 12
    },
    {
      "buffer": 0,
      "byteOffset": 755992,
      "byteLength": 1944,
      "target": 34962,
      "byteStride": 12
    },
    {
      "buffer": 0,
      "byteOffset": 757936,
      "byteLength": 1296,
      "target": 34962,
      "byteStride": 8
    },
    {
      "buffer": 0,
      "byteOffset": 759232,
      "byteLength": 3072,
      "target": 34963
    },
    {
      "buffer": 0,
      "byteOffset": 762304,
      "byteLength": 24624,
      "target": 34962,
      "byteStride": 12
    },
    {
      "buffer": 0,
      "byteOffset": 786928,
      "byteLength": 24624,
      "target": 34962,
      "byteStride": 12
    },
    {
      "buffer": 0,
      "byteOffset": 811552,
      "byteLength": 16416,
      "target": 34962,
      "byteStride": 8
    },
    {
      "buffer": 0,
      "byteOffset": 827968,
      "byteLength": 49152,
      "target": 34963
    },
    {
      "buffer": 0,
      "byteOffset": 877120,
      "byteLength": 259056,
      "target": 34962,
      "byteStride": 12
    },
    {
      "buffer": 0,
      "byteOffset": 1136176,
      "byteLength": 259056,
      "target": 34962,
      "byteStride": 12
    },
    {
      "buffer": 0,
      "byteOffset": 1395232,
      "byteLength": 172704,
      "target": 34962,
      "byteStride": 8
    },
    {
      "buffer": 0,
      "byteOffset": 1567936,
      "byteLength": 511488,
      "target": 34963
    },
    {
      "buffer": 0,
      "byteOffset": 2079424,
      "byteLength": 7704,
      "target": 34962,
      "byteStride": 12
    },
    {
      "buffer": 0,
      "byteOffset": 2087128,
      "byteLength": 7704,
      "target": 34962,
      "byteStride": 12
    },
    {
      "buffer": 0,
      "byteOffset": 2094832,
      "byteLength": 5136,
      "target": 34962,
      "byteStride": 8
    },
    {
      "buffer": 0,
      "byteOffset": 2099968,
      "byteLength": 15360,
      "target": 34963
    },
    {
      "buffer": 0,
      "byteOffset": 2115328,
      "byteLength": 13848,
      "target": 34962,
      "byteStride": 12
    },
    {
      "buffer": 0,
      "byteOffset": 2129176,
      "byteLength": 13848,
      "target": 34962,
      "byteStride": 12
    },
    {
      "buffer": 0,
      "byteOffset": 2143024,
      "byteLength": 9232,
      "target": 34962,
      "byteStride": 8
    },
    {
      "buffer": 0,
      "byteOffset": 2152256,
      "byteLength": 27648,
      "target": 34963
    },
    {
      "buffer": 0,
      "byteOffset": 2179904,
      "byteLength": 13848,
      "target": 34962,
      "byteStride": 12
    },
    {
      "buffer": 0,
      "byteOffset": 2193752,
      "byteLength": 13848,
      "target": 34962,
      "byteStride": 12
    },
    {
      "buffer": 0,
      "byteOffset": 2207600,
      "byteLength": 9232,
      "target": 34962,
      "byteStride": 8
    },
    {
      "buffer": 0,
      "byteOffset": 2216832,
      "byteLength": 27648,
      "target": 34963
    }
  ],
  "buffers": [
    {
      "byteLength": 2244480,
      "uri": "data:application/octet-stream;base64,"
    }
  ],
  "accessors": [
    {
      "bufferView": 0,
      "componentType": 5126,
      "count": 13532,
      "max": [
        0.40341100096702576,
        0.3820970058441162,
        2.913530111312866
      ],
      "min": [
        -0.40341100096702576,
        -0.15159399807453156,
        2.2675890922546387
      ],
      "type": "VEC3"
    },
    {
      "bufferView": 1,
      "componentType": 5126,
      "count": 13532,
      "max": [
        0.9998999834060669,
        1,
        0.9998000264167786
      ],
      "min": [
        -0.9998999834060669,
        -1,
        -1
      ],
      "type": "VEC3"
    },
    {
      "bufferView": 2,
      "componentType": 5126,
      "count": 13532,
      "max": [
        0.75,
        -0.375
      ],
      "min": [
        0.25,
        -0.875
      ],
      "type": "VEC2"
    },
    {
      "bufferView": 3,
      "componentType": 5125,
      "count": 80256,
      "max": [
        13531
      ],
      "min": [
        0
      ],
      "type": "SCALAR"
    },
    {
      "bufferView": 4,
      "componentType": 5126,
      "count": 162,
      "max": [
        0.15935200452804565,
        0.3487519919872284,
        2.623621940612793
      ],
      "min": [
        -0.15935200452804565,
        0.3233970105648041,
        2.6053900718688965
      ],
      "type": "VEC3"
    },
    {
      "bufferView": 5,
      "componentType": 5126,
      "count": 162,
      "max": [
        0.48559999465942383,
        0.9919000267982483,
        0.6884999871253967
      ],
      "min": [
        -0.48559999465942383,
        0.2126999944448471,
        -0.9736999869346619
      ],
      "type": "VEC3"
    },
    {
      "bufferView": 6,
      "componentType": 5126,
      "count": 162,
      "max": [
        0.5483289957046509,
        -0.7741519808769226
      ],
      "min": [
        0.5184310078620911,
        -0.8292970061302185
      ],
      "type": "VEC2"
    },
    {
      "bufferView": 7,
      "componentType": 5125,
      "count": 768,
      "max": [
        161
      ],
      "min": [
        0
      ],
      "type": "SCALAR"
    },
    {
      "bufferView": 8,
      "componentType": 5126,
      "count": 2052,
      "max": [
        0.2121569961309433,
        0.3944540023803711,
        2.731297016143799
      ],
      "min": [
        -0.21205000579357147,
        0.27166301012039185,
        2.6545650959014893
      ],
      "type": "VEC3"
    },
    {
      "bufferView": 9,
      "componentType": 5126,
      "count": 2052,
      "max": [
        0.9994000196456909,
        0.9965999722480774,
        0.9998000264167786
      ],
      "min": [
        -0.9994000196456909,
        -0.9980000257492065,
        -0.9998000264167786
      ],
      "type": "VEC3"
    },
    {
      "bufferView": 10,
      "componentType": 5126,
      "count": 2052,
      "max": [
        0.625,
        -0.75
      ],
      "min": [
        0.564395010471344,
        -0.8534479737281799
      ],
      "type": "VEC2"
    },
    {
      "bufferView": 11,
      "componentType": 5125,
      "count": 12288,
      "max": [
        2051
      ],
      "min": [
        0
      ],
      "type": "SCALAR"
    },
    {
      "bufferView": 12,
      "componentType": 5126,
      "count": 21588,
      "max": [
        0.33718499541282654,
        0.3836379945278168,
        3.113837957382202
      ],
      "min": [
        -0.3949120044708252,
        -0.3151490092277527,
        2.3586130142211914
      ],
      "type": "VEC3"
    },
    {
      "bufferView": 13,
      "componentType": 5126,
      "count": 21588,
      "max": [
        1,
        1,
        0.9998999834060669
      ],
      "min": [
        -0.9998999834060669,
        -1,
        -1
      ],
      "type": "VEC3"
    },
    {
      "bufferView": 14,
      "componentType": 5126,
      "count": 21588,
      "max": [
        0.75,
        0
      ],
      "min": [
        0,
        -0.75
      ],
      "type": "VEC2"
    },
    {
      "bufferView": 15,
      "componentType": 5125,
      "count": 127872,
      "max": [
        21587
      ],
      "min": [
        0
      ],
      "type": "SCALAR"
    },
    {
      "bufferView": 16,
      "componentType": 5126,
      "count": 642,
      "max": [
        -0.09981899708509445,
        0.3745580017566681,
        2.5412940979003906
      ],
      "min": [
        -0.11556199938058853,
        0.3596839904785156,
        2.5269999504089355
      ],
      "type": "VEC3"
    },
    {
      "bufferView": 17,
      "componentType": 5126,
      "count": 642,
      "max": [
        0.9970999956130981,
        0.9987999796867371,
        0.9976999759674072
      ],
      "min": [
        -0.9987000226974487,
        -0.996399998664856,
        -0.9980999827384949
      ],
      "type": "VEC3"
    },
    {
      "bufferView": 18,
      "componentType": 5126,
      "count": 642,
      "max": [
        0.7241380214691162,
        -0.75
      ],
      "min": [
        0.6293100118637085,
        -0.75
      ],
      "type": "VEC2"
    },
    {
      "bufferView": 19,
      "componentType": 5125,
      "count": 3840,
      "max": [
        641
      ],
      "min": [
        0
      ],
      "type": "SCALAR"
    },
    {
      "bufferView": 20,
      "componentType": 5126,
      "count": 1154,
      "max": [
        0.21187399327754974,
        0.3507710099220276,
        2.5005791187286377
      ],
      "min": [
        -0.19131900370121002,
        0.2538610100746155,
        2.3839309215545654
      ],
      "type": "VEC3"
    },
    {
      "bufferView": 21,
      "componentType": 5126,
      "count": 1154,
      "max": [
        0.9986000061035156,
        1,
        1
      ],
      "min": [
        -0.9986000061035156,
        -1,
        -1
      ],
      "type": "VEC3"
    },
    {
      "bufferView": 22,
      "componentType": 5126,
      "count": 1154,
      "max": [
        0.44714298844337463,
        -0.75
      ],
      "min": [
        0.44714298844337463,
        -0.8189659714698792
      ],
      "type": "VEC2"
    },
    {
      "bufferView": 23,
      "componentType": 5125,
      "count": 6912,
      "max": [
        1153
      ],
      "min": [
        0
      ],
      "type": "SCALAR"
    },
    {
      "bufferView": 24,
      "componentType": 5126,
      "count": 1154,
      "max": [
        0.19962899386882782,
        0.352836012840271,
        2.385054111480713
      ],
      "min": [
        -0.17907500267028809,
        0.24824200570583344,
        2.304302930831909
      ],
      "type": "VEC3"
    },
    {
      "bufferView": 25,
      "componentType": 5126,
      "count": 1154,
      "max": [
        0.9898999929428101,
        1,
        1
      ],
      "min": [
        -0.9898999929428101,
        -1,
        -1
      ],
      "type": "VEC3"
    },
    {
      "bufferView": 26,
      "componentType": 5126,
      "count": 1154,
      "max": [
        0.44714298844337463,
        -0.75
      ],
      "min": [
        0.44714298844337463,
        -0.8189659714698792
      ],
      "type": "VEC2"
    },
    {
      "bufferView": 27,
      "componentType": 5125,
      "count": 6912,
      "max": [
        1153
      ],
      "min": [
        0
      ],
      "type": "SCALAR"
    }
  ],
  "materials": [
    {
      "pbrMetallicRoughness": {
        "baseColorFactor": [
          0.8879231178794776,
          0.6172065624120635,
          0.514917665367466,
          1
        ],
        "metallicFactor": 1,
        "roughnessFactor": 1
      },
      "doubleSided": true,
      "name": "skin"
    },
    {
      "pbrMetallicRoughness": {
        "baseColorFactor": [
          0,
          0,
          0,
          1
        ],
        "metallicFactor": 1,
        "roughnessFactor": 1
      },
      "doubleSided": true,
      "name": "eyes"
    },
    {
      "pbrMetallicRoughness": {
        "baseColorFactor": [
          0.005181516700061659,
          0.001214107934117647,
          0.001214107934117647,
          1
        ],
        "metallicFactor": 1,
        "roughnessFactor": 1
      },
      "doubleSided": true,
      "name": "hair"
    },
    {
      "pbrMetallicRoughness": {
        "baseColorFactor": [
          0,
          0,
          0,
          1
        ],
        "metallicFactor": 1,
        "roughnessFactor": 1
      },
      "doubleSided": true,
      "name": "dots"
    },
    {
      "pbrMetallicRoughness": {
        "baseColorFactor": [
          0.6038273388475408,
          0.6038273388475408,
          0.6038273388475408,
          1
        ],
        "metallicFactor": 1,
        "roughnessFactor": 1
      },
      "doubleSided": true,
      "name": "teeth"
    }
  ],
  "meshes": [
    {
      "primitives": [
        {
          "mode": 4,
          "attributes": {
            "POSITION": 0,
            "NORMAL": 1,
            "TEXCOORD_0": 2
          },
          "indices": 3,
          "material": 0
        }
      ]
    },
    {
      "primitives": [
        {
          "mode": 4,
          "attributes": {
            "POSITION": 4,
            "NORMAL": 5,
            "TEXCOORD_0": 6
          },
          "indices": 7,
          "material": 1
        }
      ]
    },
    {
      "primitives": [
        {
          "mode": 4,
          "attributes": {
            "POSITION": 8,
            "NORMAL": 9,
            "TEXCOORD_0": 10
          },
          "indices": 11,
          "material": 2
        }
      ]
    },
    {
      "primitives": [
        {
          "mode": 4,
          "attributes": {
            "POSITION": 12,
            "NORMAL": 13,
            "TEXCOORD_0": 14
          },
          "indices": 15,
          "material": 2
        }
      ]
    },
    {
      "primitives": [
        {
          "mode": 4,
          "attributes": {
            "POSITION": 16,
            "NORMAL": 17,
            "TEXCOORD_0": 18
          },
          "indices": 19,
          "material": 3
        }
      ]
    },
    {
      "primitives": [
        {
          "mode": 4,
          "attributes": {
            "POSITION": 20,
            "NORMAL": 21,
            "TEXCOORD_0": 22
          },
          "indices": 23,
          "material": 4
        }
      ]
    },
    {
      "primitives": [
        {
          "mode": 4,
          "attributes": {
            "POSITION": 24,
            "NORMAL": 25,
            "TEXCOORD_0": 26
          },
          "indices": 27,
          "material": 4
        }
      ]
    }
  ]
}